<?xml version="1.0" standalone="no"?><!DOCTYPE svg PUBLIC "-//W3C//DTD SVG 1.1//EN" "http://www.w3.org/Graphics/SVG/1.1/DTD/svg11.dtd"><svg t="1593741184195" class="icon" viewBox="0 0 1024 1024" version="1.1" xmlns="http://www.w3.org/2000/svg" p-id="4273" xmlns:xlink="http://www.w3.org/1999/xlink" width="200" height="200"><defs><style type="text/css"></style></defs><path d="M767.488 212.992c6.656 0 13.312-2.56 17.92-7.68 4.608-4.608 7.68-11.264 7.68-17.92V76.288c0-13.824-11.264-25.6-25.6-25.6-13.824 0-25.6 11.264-25.6 25.6v111.104c0 6.656 2.56 13.312 7.68 17.92 4.608 5.12 11.264 7.68 17.92 7.68zM253.952 212.992c6.656 0 13.312-2.56 17.92-7.68 4.608-4.608 7.68-11.264 7.68-17.92V76.288c0-13.824-11.264-25.6-25.6-25.6-13.824 0-25.6 11.264-25.6 25.6v111.104c0 6.656 2.56 13.312 7.68 17.92 4.608 5.12 11.264 7.68 17.92 7.68z" p-id="4274" fill="#13227a"></path><path d="M859.648 163.84h-41.472v23.552c0 28.16-23.04 50.688-50.688 50.688-28.16 0-50.688-23.04-50.688-50.688V163.84H304.64v23.552c0 28.16-23.04 50.688-50.688 50.688-28.16 0-50.688-23.04-50.688-50.688V163.84h-41.472C89.088 163.84 30.208 223.744 30.208 297.472v57.344h961.536V297.472c-0.512-73.728-59.392-133.632-132.096-133.632z m0 0M30.208 405.504v433.152c0 73.728 58.88 133.632 131.584 133.632h697.856c72.704 0 131.584-59.904 131.584-133.632V405.504H30.208z m651.776 440.832c-6.656 6.656-14.336 10.24-22.528 10.24-8.192 0-15.872-3.584-22.528-10.24l-129.024-129.024L384 851.968c-6.656 6.656-14.336 10.24-22.528 10.24s-15.872-3.584-22.528-10.24c-6.656-6.656-10.24-14.336-10.24-22.528 0-8.192 3.584-15.872 10.24-22.528l129.024-129.024-129.024-129.024c-6.656-6.656-10.24-14.336-10.24-22.528s3.584-15.872 10.24-22.528c6.656-6.656 14.336-10.24 22.528-10.24s15.872 3.584 22.528 10.24l123.392 123.392 129.024-129.024c6.656-6.656 14.336-10.24 22.528-10.24 8.192 0 15.872 3.584 22.528 10.24 13.824 13.824 13.824 31.232 0 45.056L552.96 672.256l129.024 129.024c6.656 6.656 10.24 14.336 10.24 22.528 0 8.192-3.584 15.872-10.24 22.528z" p-id="4275" fill="#13227a"></path></svg>