<?xml version="1.0" standalone="no"?><!DOCTYPE svg PUBLIC "-//W3C//DTD SVG 1.1//EN" "http://www.w3.org/Graphics/SVG/1.1/DTD/svg11.dtd"><svg t="1594384481002" class="icon" viewBox="0 0 1024 1024" version="1.1" xmlns="http://www.w3.org/2000/svg" p-id="5750" xmlns:xlink="http://www.w3.org/1999/xlink" width="64" height="64"><defs><style type="text/css"></style></defs><path d="M839.68 921.6H184.321c-60.326 0-109.228-48.902-109.228-109.226V512.002h331.531a103.177 103.177 0 0 0-3.851 27.305c0 60.324 48.901 109.227 109.226 109.227s109.227-48.902 109.227-109.227a103.266 103.266 0 0 0-3.852-27.305h331.531v300.372c0 28.968-11.508 56.75-31.992 77.233A109.219 109.219 0 0 1 839.68 921.6zM348.159 457.389H75.094V320.854a109.224 109.224 0 0 1 109.227-109.226h163.838v-54.614c0-30.16 24.455-54.613 54.615-54.613h218.452c30.164 0 54.613 24.453 54.613 54.613v54.614h163.84a109.224 109.224 0 0 1 109.226 109.226v136.535H348.159z m273.068-273.067a27.317 27.317 0 0 0-7.996-19.313 27.32 27.32 0 0 0-19.309-7.996H430.081c-15.081 0-27.307 12.227-27.307 27.309v27.305h218.452v-27.305z m-163.84 354.985c0.004 30.16 24.453 54.606 54.613 54.606s54.609-24.446 54.613-54.606a54.02 54.02 0 0 0-7.59-27.305h-94.075a54.02 54.02 0 0 0-7.561 27.305z m0 0" p-id="5751" fill="#d4237a"></path></svg>