<?xml version="1.0" standalone="no"?><!DOCTYPE svg PUBLIC "-//W3C//DTD SVG 1.1//EN" "http://www.w3.org/Graphics/SVG/1.1/DTD/svg11.dtd"><svg t="1594384485601" class="icon" viewBox="0 0 1024 1024" version="1.1" xmlns="http://www.w3.org/2000/svg" p-id="5930" xmlns:xlink="http://www.w3.org/1999/xlink" width="64" height="64"><defs><style type="text/css"></style></defs><path d="M824.865068 91.767861h-22.721589v128.178289c0 68.062875-55.657703 124.112857-124.688539 124.112857H357.508481c-68.934039 0-124.530608-56.049982-124.530609-124.107763V91.701632h-29.482025C135.224096 91.701632 78.965239 147.094419 78.965239 215.855245v684.057371C78.965239 967.878695 135.224096 1024 203.495847 1024h622.102833C893.870431 1024 950.129288 967.950018 950.129288 899.846387V215.946946c-0.687761-68.511194-56.44226-123.791902-125.172519-124.107762l-0.091701-0.071323z m-46.905307 674.688536c0 18.055002-14.672237 33.404811-33.450661 33.404811H283.811059c-18.095758-0.662288-32.416473-15.400754-32.416473-33.358961 0-17.953112 14.320714-32.691577 32.416473-33.35896h460.682757c18.111042 0 33.516891 14.600913 33.516891 33.318204h-0.066229 0.020378z m-33.450661-142.116914H283.811059c-18.51351-0.086607-33.481229-14.977908-33.521985-33.333488a32.849508 32.849508 0 0 1 9.669411-23.709927 33.379338 33.379338 0 0 1 23.852574-9.720357h460.682757c17.423281 1.436657 30.88302 15.945868 30.88302 33.384433 0.025473 17.392714-13.408794 31.901926-30.88302 33.35896l0.025473 0.020379z" p-id="5931" fill="#d4237a"></path><path d="M610.701358 83.05622C606.686871 36.074496 565.818579-0.066076 516.778666 0.000153c-49.060291-0.091701-89.96934 36.053965-94.009299 83.056067H303.124409v119.110032c0.137552 31.759279 26.868533 57.486638 59.911633 57.654758h308.116969c33.053289-0.203781 59.774081-25.946424 59.911633-57.720987V83.122449h-120.434609l0.071323-0.066229z" p-id="5932" fill="#d4237a"></path></svg>