<?xml version="1.0" standalone="no"?><!DOCTYPE svg PUBLIC "-//W3C//DTD SVG 1.1//EN" "http://www.w3.org/Graphics/SVG/1.1/DTD/svg11.dtd"><svg t="1593594474517" class="icon" viewBox="0 0 1024 1024" version="1.1" xmlns="http://www.w3.org/2000/svg" p-id="4367" xmlns:xlink="http://www.w3.org/1999/xlink" width="200" height="200"><defs><style type="text/css"></style></defs><path d="M912.907636 954.181818H111.092364A41.309091 41.309091 0 0 1 69.818182 912.907636V111.092364A41.309091 41.309091 0 0 1 111.092364 69.818182h801.826909A41.309091 41.309091 0 0 1 954.181818 111.092364v801.826909A41.309091 41.309091 0 0 1 912.907636 954.181818zM111.092364 105.192727a5.981091 5.981091 0 0 0-5.899637 5.899637v801.826909c0 3.2 2.699636 5.899636 5.899637 5.899636h801.826909a5.981091 5.981091 0 0 0 5.899636-5.899636V111.092364a5.981091 5.981091 0 0 0-5.899636-5.899637H111.092364z" p-id="4368" fill="#1296db"></path><path d="M841.960727 553.274182H205.626182a17.687273 17.687273 0 0 1 0-35.374546h636.322909a17.687273 17.687273 0 0 1 0.011636 35.374546zM841.960727 677.085091H205.626182a17.687273 17.687273 0 0 1 0-35.374546h636.322909a17.687273 17.687273 0 0 1 0.011636 35.374546zM842.158545 800.896h-636.741818a17.687273 17.687273 0 0 1 0-35.374545h636.741818a17.687273 17.687273 0 0 1 0 35.374545z" p-id="4369" fill="#1296db"></path><path d="M443.659636 447.162182a25.332364 25.332364 0 0 1-24.692363-29.556364l10.949818-66.932363-46.254546-47.26691a25.483636 25.483636 0 0 1-5.934545-26.030545 25.018182 25.018182 0 0 1 20.014545-16.942545l63.232-9.63491 28.427637-60.38109c4.212364-8.936727 12.858182-14.475636 22.597818-14.475637s18.385455 5.538909 22.597818 14.452364l28.427637 60.381091 63.255272 9.646545c9.297455 1.396364 16.965818 7.889455 19.991273 16.930909a25.483636 25.483636 0 0 1-5.946182 26.042182l-46.242909 47.255273 10.949818 66.920727a25.320727 25.320727 0 0 1-10.414545 24.994909 24.587636 24.587636 0 0 1-26.251637 1.466182L512 412.986182l-56.378182 31.069091a24.692364 24.692364 0 0 1-11.962182 3.106909z m-21.224727-154.717091l36.270546 37.050182c5.655273 5.771636 8.250182 14.021818 6.912 22.062545l-8.366546 51.211637 42.798546-23.58691a24.797091 24.797091 0 0 1 23.877818-0.023272l42.821818 23.610182-8.378182-51.246546a25.623273 25.623273 0 0 1 6.935273-22.039273l36.258909-37.038545-49.361455-7.528727a25.064727 25.064727 0 0 1-18.862545-14.126546L512 225.454545l-21.329455 45.300364a25.088 25.088 0 0 1-18.827636 14.149818l-49.408 7.540364z m8.285091 53.364364v0.034909-0.034909z m162.548364-0.03491l0.011636 0.03491-0.011636-0.03491z m27.671272-50.385454l0.034909 0.011636-0.034909-0.011636z m-217.856 0h-0.034909 0.034909z m162.257455-39.691636h0.116364-0.116364z m-62.754909-50.245819l0.011636 0.034909-0.011636-0.034909z" p-id="4370" fill="#1296db"></path></svg>