<?xml version="1.0" standalone="no"?><!DOCTYPE svg PUBLIC "-//W3C//DTD SVG 1.1//EN" "http://www.w3.org/Graphics/SVG/1.1/DTD/svg11.dtd"><svg t="1593342275977" class="icon" viewBox="0 0 1467 1024" version="1.1" xmlns="http://www.w3.org/2000/svg" p-id="4060" xmlns:xlink="http://www.w3.org/1999/xlink" width="45.84375" height="32"><defs><style type="text/css"></style></defs><path d="M1429.6287266133331 684.4851086222222c-24.92700103111111-46.139620693333335-82.50317596444444-63.28051939555555-128.6509932088889-38.43711658666667L985.4553736533335 816.4587190044444c7.40909056 24.84995982222222 6.596057315555555 52.453740088888885-4.161877333333333 78.27081557333334-18.108014364444443 43.40547015111111-60.39392483555555 71.36823068444444-107.80063175111111 71.36823068444444-15.719730062222224 0-30.787067448888887-3.18820352-44.66272028444445-8.907300408888888l-155.42698894222218-64.99018410666666v-22.84688270222222l163.5147002311111 68.33411072c11.947978524444444 4.968352426666667 25.004042239999997 7.350080853333334 37.24051569777778 7.350079715555555 37.09299029333333 0 72.76972942222221-21.96172572444444 87.98459221333333-58.37609528888889 1.0998897777777779-2.7407075555555553 1.9965201066666665-5.565014471111111 2.8931515733333333-8.374566684444444 0.2950519466666667-1.0376009955555556 0.4491355022222222-2.08831488 0.7491049244444444-3.1128018488888887 0.4491355022222222-1.7031076977777777 0.88351744-3.4127712711111107 1.2621687466666667-5.199477191111112 0.29341354666666664-1.3375704177777776 0.5114242844444444-2.657109333333333 0.7491049244444444-4.007793777777778 0.2229282133333333-1.344127431111111 0.44749596444444445-2.6636663466666666 0.5950225066666667-4.0848349866666664 0.21801073777777777-1.5555811555555554 0.44749596444444445-3.189843057777778 0.5130626844444444-4.7388672000000005 0.07048419555555555-0.8195902577777777 0.07048419555555555-1.6326223644444444 0.14588700444444444-2.4587696355555555 2.0047166577777773-38.80265386666667-19.657039644444446-76.40706844444445-57.576176071111114-92.21695374222222L474.50512952888886 582.3445629155556 280.1984455111111 621.3701461333334V984.5319771022223h128.86736554666666l492.02263836444445 91.98582897777777 490.09004657777774-264.0291794488889c46.139620693333335-24.84995982222222 63.36411761777777-81.83111338666666 38.43711772444444-127.97729109333333l0.01311288888888889-0.026226915555555553zM253.36344007111123 585.82781952c0-34.93582961777778-28.333215288888887-63.282158933333335-63.28052053333333-63.282158933333335h-95.33631146666667c-34.93419121777778 0-63.28051939555555 28.333215288888887-63.28051939555555 63.282158933333335v445.35684096c0 35.011232426666666 28.333215288888887 63.35756174222223 63.28051939555555 63.35756174222223h95.3297555911111c34.940747093333336 0 63.287076408888886-28.333215288888887 63.287076408888886-63.35756174222223V585.82781952zM654.3952315733336 524.9945941333333h595.5417338311111v66.17367210666667H654.3952315733336v-66.17367210666667z m551.5363248355555-176.45602019555557h-144.49202289777776c-13.0298368-15.377141759999997-22.286282524444445-32.80981447111111-23.800885475555557-52.35702897777777-6.204294257777778-79.94769635555555 79.95916970666666-118.22745144888889 79.95917084444446-216.28480170666668 0-83.27850780444444-63.41657144888889-150.44060501333334-165.42926165333336-150.44060501333334-102.01760654222221 0-165.42926165333336 67.16209720888888-165.42926051555557 150.44060501333334 0 98.05571072 86.15854648888887 136.33710535111112 79.95589176888889 216.28480170666668-1.5146018133333332 19.547214506666666-10.767769600000001 36.97988721777777-23.7976064 52.35702897777777h-144.4969415111111c-24.300834133333336 0-44.00541013333334 19.706214400000004-44.00540899555555 44.01032647111111v88.33373752888889h595.5417338311111v-88.33373752888889c0-24.30411320888889-19.702936462222223-44.010327608888886-44.00540899555555-44.01032647111111z m0 0" fill="#13227a" p-id="4061"></path></svg>