<?xml version="1.0" standalone="no"?><!DOCTYPE svg PUBLIC "-//W3C//DTD SVG 1.1//EN" "http://www.w3.org/Graphics/SVG/1.1/DTD/svg11.dtd"><svg t="1586738219235" class="icon" viewBox="0 0 1024 1024" version="1.1" xmlns="http://www.w3.org/2000/svg" p-id="6014" width="200" height="200"><path d="M647.727859 205.493503L376.282977 68.627866 104.747795 205.493503V919.252205l271.535182-100.745708 17.875753-6.176508 0.426215-28.70812V130.29181l229.043697 116.790179v306.011655l46.103478 0.603203V251.196049l207.729326-80.052599V635.566279l41.790759-1.202794V104.747795l-271.524346 100.745708z m-295.533263 567.808903L146.538554 852.85655V235.657256l205.656042-104.845319v642.490469z" p-id="6015" fill="#1296db"></path><path d="M666.481326 938.272959l-169.807012-168.224959c-39.616339-39.619951-39.616339-103.982053-0.065016-143.533376l11.540318-11.536705c19.55533-19.558942 45.034328-30.333517 71.730567-30.333517 25.78963 0 51.023012 10.026892 71.051514 28.238561l0.679054 0.653771 14.801947 14.798335 14.801948-14.798335c19.562554-19.566166 45.03794-30.337129 71.730567-30.337129s52.168014 10.770963 71.730568 30.337129l11.536706 11.536705c19.096607 19.092995 29.61473 44.568381 29.61473 71.730568 0 27.162187-10.514511 52.633961-29.61473 71.730568l-169.731161 169.738384z m-86.601143-313.903858c-16.318984 0-31.406279 6.465467-43.636486 18.699287l-11.540318 11.536705c-24.059485 24.059485-24.059485 63.217101 0.003612 87.280198l141.640692 140.329538 141.777947-141.774335c11.590885-11.594497 17.976889-27.093559 17.976889-43.640099 0-16.550152-6.386004-32.045601-17.976889-43.636487l-11.536706-11.540317c-12.237432-12.23382-27.324727-18.699287-43.640099-18.699288s-31.402667 6.465467-43.640098 18.699288L666.412698 684.519619l-42.542052-42.542053c-12.638363-11.356106-28.245785-17.608466-43.990463-17.608465z" p-id="6016" fill="#1296db"></path></svg>