<?xml version="1.0" standalone="no"?><!DOCTYPE svg PUBLIC "-//W3C//DTD SVG 1.1//EN" "http://www.w3.org/Graphics/SVG/1.1/DTD/svg11.dtd"><svg t="1594022323357" class="icon" viewBox="0 0 1026 1024" version="1.1" xmlns="http://www.w3.org/2000/svg" p-id="4152" xmlns:xlink="http://www.w3.org/1999/xlink" width="200.390625" height="200"><defs><style type="text/css"></style></defs><path d="M512.939139 1023.999609a44.900179 44.900179 0 0 0 45.088045-45.088046V45.088045a45.088045 45.088045 0 1 0-90.176091 0v932.821562c0 25.048914 20.039131 46.090002 45.088046 46.090002z m235.459792-173.338486a44.900179 44.900179 0 0 0 45.088046-45.088045v-587.083925a45.088045 45.088045 0 1 0-90.176091 0V806.575034c0 24.046958 21.041088 44.086089 45.088045 44.086089z m232.516545-167.326746a44.900179 44.900179 0 0 0 45.088046-45.088046V385.753277a45.088045 45.088045 0 0 0-90.176091 0v252.493054c0 25.048914 19.037175 45.088045 44.086089 45.088046z m-935.827431 0a44.900179 44.900179 0 0 0 45.088046-45.088046V385.753277a45.088045 45.088045 0 0 0-90.176091 0v252.493054a45.542057 45.542057 0 0 0 45.088045 45.088046z m218.426531 167.326746a44.900179 44.900179 0 0 0 45.088046-45.088045v-587.083925a45.088045 45.088045 0 1 0-90.176091 0V806.575034c0 24.046958 20.039131 44.086089 45.088045 44.086089z m0 0" p-id="4153" fill="#d4237a"></path></svg>