<?xml version="1.0" standalone="no"?><!DOCTYPE svg PUBLIC "-//W3C//DTD SVG 1.1//EN" "http://www.w3.org/Graphics/SVG/1.1/DTD/svg11.dtd"><svg t="1593681503006" class="icon" viewBox="0 0 1024 1024" version="1.1" xmlns="http://www.w3.org/2000/svg" p-id="4092" xmlns:xlink="http://www.w3.org/1999/xlink" width="200" height="200"><defs><style type="text/css"></style></defs><path d="M189.2 1012.3c-22.6 0-40.7-18.1-40.7-40.6 0-22.2 18.2-40.3 40.7-40.3h94.2v-44.7c0-11.2 4-20.7 10.9-28.3l1.7-2.3c8.1-7.8 18.4-12.7 30.6-12.7h143.8V178.8c-13.6 3.2-26.5 6.9-39.2 12.4-11.9 5.2-23.4 11.5-34.6 18.7-10.7 7.8-21.4 16.4-30.3 26a259.07 259.07 0 0 1-81.3 53.6c-15.2 6.3-31.1 11.8-48.4 15.5-6.4 1.2-12.9 2-19 3.2L322 627c5.6 2 11 5.2 15.6 10.1 15.5 15.6 15.5 41.5 0 56.8-19.6 19.9-43.7 36.3-70.3 47.6-25.9 10.1-53.7 16.1-82.4 16.1-29.4 0-57.6-6.1-83-16.1l-2.4-1.1c-25.9-11.2-48.9-26.5-68-46.4-15.8-15.3-15.8-41.2 0-56.8 4.6-5.1 9.8-8.2 15.6-10.2L152 307.7c-5.4-0.9-10.4-1.4-15.6-2.6-17.3-3.7-33.4-9.2-48.4-15.5-15.6-5.8-30.3-13.9-43.3-22.8-13.8-8.9-26.5-19.6-38-30.8-9.2-10.1-9.2-26 0-34.6 9.5-10.1 25.3-10.1 34.6 0 9.2 8.7 19.6 17.6 30.3 25.1 11.2 7.2 22.7 13.8 34.9 19 12.4 4.9 25.4 9 38.9 11.8 13 2.6 26.8 4 41.3 4 14.1 0 28-1.5 40.9-4 13.2-2.9 26.6-6.9 39.3-11.8 24.1-10.1 46.4-25.7 65.1-44.1l0.5-0.6c11.5-11.5 23.6-21.9 37.5-30.8 12.7-8.9 27.7-16.5 42.7-22.8 15.5-6.9 31.7-12.1 48.4-15l9.6-2.3V52.8c0-22.5 18.7-41 41.1-41 22.2 0 40.4 18.5 40.4 41v76.9l9.7 2.3c16.7 2.9 33.1 8.1 48.4 15 15.5 6.3 30 13.8 43.3 22.8 13.2 8.9 26.1 19.6 37.4 31.4 9.6 8.7 19.6 17.6 30.6 25.1 11.5 7.2 23 13.8 34.9 19 12.3 4.9 25.4 9 38.8 11.8 13.4 2.6 26.6 4 41 4 14.4 0 28.2-1.5 40.9-4 13.8-2.9 26.5-6.9 39.2-11.8 24.3-10.1 46.4-25.7 65.1-44.1 9.5-10.1 25.4-10.1 34.6 0 9.2 8.7 9.2 24.5 0 34.6-23 22.5-50.1 40.9-81 53.6-15.3 6.3-31.4 11.8-48.4 15.5-4.9 1.2-10.2 1.7-15.9 2.6L976 627c5.5 2 10.7 5.2 15.3 10.1 16.1 15.6 16.1 41.5 0 56.8-19.6 19.9-43.5 36.3-70.4 47.6-25.3 10.1-53.6 16.1-82.8 16.1-29.1 0-56.7-6.1-82.4-16.1l-2.1-1.1c-26.2-11.2-49-26.5-68.3-46.4-15.8-15.3-15.8-41.2 0-56.8 4.4-4.9 10.1-8.1 15.3-10.1l104.9-318.8c-6.9-1.2-13.2-2-19.6-3.2-17-3.7-33.4-9.2-48.4-15.5-15.6-5.8-30.3-13.9-43.3-22.8-13.3-8.9-26.5-19.6-37.4-30.8-9.9-9.5-19.9-18.2-31.2-26-10.9-7.2-22.5-13.6-34.6-18.7-12-5.5-25.3-9.2-39.1-12.4v664.6H696c11.8 0 23 4.9 30.4 12.7 8.2 7.5 12.7 18.8 12.7 30.6v44.7h94.6c22.4 0 40.3 18.2 40.3 40.3 0 22.5-17.9 40.6-40.3 40.6H189.2z m740.1-371.2l-91.1-277.5-90.7 277.5c11.4 10.4 24.1 18.4 37.4 24.8l1.8 0.3c15.8 6.6 33.4 10.1 51.5 10.1 18.8 0 36.1-3.5 51.6-10.1h0.6c13.9-6.1 27.6-14.2 38.9-25.1z m-654 0l-90.5-277.5-91 277.5c11 10.4 23.6 18.4 37.6 24.8l1.7 0.3c15.5 6.6 33.1 10.1 51.8 10.1 17.8 0 35.7-3.5 51.1-10.1h0.3c14-6.1 27.5-14.2 39-25.1z m56.6 290.2H691v-38.9H331.9v38.9z m0 0" p-id="4093" fill="#1afa29"></path></svg>