<?xml version="1.0" standalone="no"?><!DOCTYPE svg PUBLIC "-//W3C//DTD SVG 1.1//EN" "http://www.w3.org/Graphics/SVG/1.1/DTD/svg11.dtd"><svg t="1591153409570" class="icon" viewBox="0 0 1221 1024" version="1.1" xmlns="http://www.w3.org/2000/svg" p-id="2002" xmlns:xlink="http://www.w3.org/1999/xlink" width="715.4296875" height="600"><defs><style type="text/css"></style></defs><path d="M1181.62616 236.357436h-118.017051V355.667824a39.446795 39.446795 0 1 1-78.89359 0V236.357436H866.698468a39.446795 39.446795 0 1 1 0-78.89359h118.017051V39.446795a39.446795 39.446795 0 0 1 78.89359 0v118.017051h118.017051a39.446795 39.446795 0 0 1 0 78.89359z m0 355.667824v118.017051H295.689943a59.170193 59.170193 0 1 1 0-118.017051h232.477423l63.050205-78.89359H1102.73257a78.89359 78.89359 0 0 1 78.89359 78.89359z m-846.812757-40.740132a97.000316 97.000316 0 0 1 0-196.910641 97.000316 97.000316 0 0 1 0 196.910641z m846.812757 472.714872h-118.017051v-157.78718H118.179365v157.463846H0.162314V275.480897a78.89359 78.89359 0 1 1 157.463846 0v472.714872h1024v275.804231z" p-id="2003" fill="#d4237a"></path></svg>