<?xml version="1.0" standalone="no"?><!DOCTYPE svg PUBLIC "-//W3C//DTD SVG 1.1//EN" "http://www.w3.org/Graphics/SVG/1.1/DTD/svg11.dtd"><svg t="1581910405337" class="icon" viewBox="0 0 1024 1024" version="1.1" xmlns="http://www.w3.org/2000/svg" p-id="3895" width="200" height="200"><path d="M0.020978 292.554032l292.532543 0 0-292.532543-292.532543 0L0.020978 292.554032 0.020978 292.554032zM365.702518 292.554032l292.53152 0 0-292.532543-292.53152 0L365.702518 292.554032 365.702518 292.554032zM731.447503 0.020466l0 292.532543 292.53152 0 0-292.532543L731.447503 0.020466 731.447503 0.020466zM0.020978 658.297994l292.532543 0L292.553521 365.703029l-292.532543 0L0.020978 658.297994 0.020978 658.297994zM365.702518 658.297994l292.53152 0L658.234037 365.703029l-292.53152 0L365.702518 658.297994 365.702518 658.297994zM731.447503 658.297994l292.53152 0L1023.979022 365.703029l-292.53152 0L731.447503 658.297994 731.447503 658.297994zM0.020978 1023.978511l292.532543 0 0-292.53152-292.532543 0L0.020978 1023.978511 0.020978 1023.978511zM365.702518 1023.978511l292.53152 0 0-292.53152-292.53152 0L365.702518 1023.978511 365.702518 1023.978511zM731.447503 1023.978511l292.53152 0 0-292.53152-292.53152 0L731.447503 1023.978511 731.447503 1023.978511z" p-id="3896" fill="#13227a"></path></svg>