<?xml version="1.0" standalone="no"?><!DOCTYPE svg PUBLIC "-//W3C//DTD SVG 1.1//EN" "http://www.w3.org/Graphics/SVG/1.1/DTD/svg11.dtd"><svg t="1593681260475" class="icon" viewBox="0 0 1024 1024" version="1.1" xmlns="http://www.w3.org/2000/svg" p-id="4062" xmlns:xlink="http://www.w3.org/1999/xlink" width="200" height="200"><defs><style type="text/css"></style></defs><path d="M669.556053 34.133333c-65.283413 0-124.842667 40.250027-157.576533 105.867947C479.238827 74.38336 419.730773 34.133333 354.399573 34.133333L34.133333 34.133333l0 765.733547 1.645227 28.545707 319.952213 0c129.49504 0 131.426987 148.855467 131.45088 155.2384l0.023893 5.90848 49.558187 0.027307 0-5.90848c0.023893-6.355627 1.983147-155.265707 132.788907-155.265707L989.866667 828.412587 989.866667 34.133333 669.556053 34.133333zM83.715413 92.0576l270.680747 0c74.468693 0 132.785493 68.12672 132.785493 155.098453l0 584.598187c-32.139947-40.64256-76.281173-61.21472-131.45088-61.21472L83.715413 770.53952 83.715413 92.0576zM669.556053 92.0576l270.70464 0 0 678.485333-270.70464 0c-55.78752 0-100.38272 20.739413-132.788907 61.658453l0-585.045333C536.767147 160.18432 595.10784 92.0576 669.556053 92.0576z" p-id="4063" fill="#d4237a"></path><path d="M579.075413 959.648427l-2.198187 5.40672L621.687467 989.866667l2.218667-5.410133c15.725227-38.857387 49.657173-63.91808 86.401707-63.91808L989.866667 920.538453l0-57.954987-279.555413 0C654.49984 862.58688 602.9824 900.666027 579.075413 959.648427z" p-id="4064" fill="#d4237a"></path><path d="M314.50112 862.58688 34.133333 862.58688l0 57.954987 280.367787 0c36.744533 0 70.67648 25.060693 86.4256 63.972693l2.17088 5.352107 44.837547-24.81152-2.146987-5.40672C421.87776 900.666027 370.336427 862.58688 314.50112 862.58688z" p-id="4065" fill="#d4237a"></path></svg>