<?xml version="1.0" standalone="no"?><!DOCTYPE svg PUBLIC "-//W3C//DTD SVG 1.1//EN" "http://www.w3.org/Graphics/SVG/1.1/DTD/svg11.dtd"><svg t="1582011102013" class="icon" viewBox="0 0 1024 1024" version="1.1" xmlns="http://www.w3.org/2000/svg" p-id="3472" width="200" height="200"><path d="M490.7 256v512c0 11.7 9.6 21.3 21.3 21.3s21.3-9.6 21.3-21.3V256c0-11.7-9.6-21.3-21.3-21.3s-21.3 9.6-21.3 21.3zM362.7 362.7v298.7c0 11.7 9.6 21.3 21.3 21.3s21.3-9.6 21.3-21.3V362.7c0-11.7-9.6-21.3-21.3-21.3s-21.3 9.5-21.3 21.3zM618.7 362.7v298.7c0 11.7 9.6 21.3 21.3 21.3s21.3-9.6 21.3-21.3V362.7c0-11.7-9.6-21.3-21.3-21.3s-21.3 9.5-21.3 21.3zM234.7 469.3v85.3c0 11.7 9.6 21.3 21.3 21.3s21.3-9.6 21.3-21.3v-85.3c0-11.7-9.6-21.3-21.3-21.3s-21.3 9.6-21.3 21.3zM768 448c-11.7 0-21.3 9.6-21.3 21.3v85.3c0 11.7 9.6 21.3 21.3 21.3s21.3-9.6 21.3-21.3v-85.3c0-11.7-9.6-21.3-21.3-21.3z" fill="#13227a" p-id="3473"></path><path d="M885.8 265.4c-3.9-5.9-10.7-9.4-17.8-9.4-17.1 0-26.8 18.9-17.4 33.2 49.2 74.6 74.5 166.3 64.7 264.4C896.4 743.2 743 896.5 553.4 915.3 297.4 940.7 84 727.6 108.6 471.8c18-186.8 166.7-339.3 353-362 110.4-13.4 213 18 293 78 3.7 2.7 8.1 4.3 12.6 4.3 20.5 0 29.5-26.3 13.1-38.6-86.4-64.8-197-99.2-315.9-86.9C255.5 88.1 87 257.3 66.3 466.3c-28 283 207.6 519 490.5 491.5 210-20.4 379.9-190 400.9-399.9 10.9-108.6-17.4-210-71.9-292.5z" fill="#13227a" p-id="3474"></path></svg>