<?xml version="1.0" standalone="no"?><!DOCTYPE svg PUBLIC "-//W3C//DTD SVG 1.1//EN" "http://www.w3.org/Graphics/SVG/1.1/DTD/svg11.dtd"><svg t="1592813538334" class="icon" viewBox="0 0 1024 1024" version="1.1" xmlns="http://www.w3.org/2000/svg" p-id="3413" xmlns:xlink="http://www.w3.org/1999/xlink" width="32" height="32"><defs><style type="text/css"></style></defs><path d="M909.312 720.6912c-63.6928 0-125.1328-10.24-182.6816-29.184a51.4048 51.4048 0 0 0-52.0192 12.4928l-112.64 112.9472a772.4032 772.4032 0 0 1-337.408-337.2032l112.64-112.8448a51.4048 51.4048 0 0 0 12.5952-52.0192 585.728 585.728 0 0 1-29.184-182.9888c0-28.4672-22.8352-51.2-51.2-51.2H90.112c-28.4672 0-51.2 22.7328-51.2 51.2a870.4 870.4 0 0 0 870.4 870.4c28.3648 0 51.2-22.8352 51.2-51.2v-179.2c0-28.4672-22.8352-51.2-51.2-51.2z m-51.2-179.2h102.4a460.8 460.8 0 0 0-460.8-460.8v102.4a358.4 358.4 0 0 1 358.4 358.4z m-204.8 0h102.4a256 256 0 0 0-256-256v102.4c84.7872 0 153.6 68.8128 153.6 153.6z" p-id="3414" fill="#13227a"></path></svg>