<?xml version="1.0" standalone="no"?><!DOCTYPE svg PUBLIC "-//W3C//DTD SVG 1.1//EN" "http://www.w3.org/Graphics/SVG/1.1/DTD/svg11.dtd"><svg t="1593342385619" class="icon" viewBox="0 0 1024 1024" version="1.1" xmlns="http://www.w3.org/2000/svg" p-id="4420" xmlns:xlink="http://www.w3.org/1999/xlink" width="32" height="32"><defs><style type="text/css"></style></defs><path d="M258.82 297.08h136.23v499.86H258.82zM576.86 517.43v-83.58H440.63v363.63h108c-21.16-35.82-33.64-77.07-33.64-121 0.01-61.36 23.33-116.72 61.87-159.05zM761.39 442V160.85H625.16v318a235.68 235.68 0 0 1 127-37.45c3.26 0.04 5.97 0.6 9.23 0.6zM77 570.07h136.23v226.86H77z" p-id="4421" fill="#13227a"></path><path d="M754.87 478.89c-106.37 0-192.12 86.3-192.12 192.13S649 863.15 754.87 863.15 947 776.85 947 671s-86.29-192.11-192.13-192.11z m0 68.12c30.22 0 52.37 23.18 52.37 50.25s-24.17 48.32-52.37 50.23c-30.23 0-52.38-23.2-52.38-50.23 0.01-29 24.2-50.26 52.39-50.26z m102.37 166.21V777c0 3.88-2 5.81-6 5.81H657.85c-4 0-6-1.93-6-5.81v-63.78c0-29 0-50.23 34.23-50.23h10.08l54.37 85-20.13-73.43c0-2 0-3.87 2-5.8l18.11-19.32a6.26 6.26 0 0 1 8.06 0l18.14 19.32c2 1.93 2 3.84 2 5.8L758.55 748l54.36-85H823c36.23 0 36.23 21.23 34.24 50.22z" p-id="4422" fill="#13227a"></path></svg>