<?xml version="1.0" standalone="no"?><!DOCTYPE svg PUBLIC "-//W3C//DTD SVG 1.1//EN" "http://www.w3.org/Graphics/SVG/1.1/DTD/svg11.dtd"><svg t="1579332037155" class="icon" viewBox="0 0 1024 1024" version="1.1" xmlns="http://www.w3.org/2000/svg" p-id="4138" xmlns:xlink="http://www.w3.org/1999/xlink" width="128" height="128"><defs><style type="text/css"></style></defs><path d="M768 432.872727l153.6-153.6c9.309091-9.309091 13.963636-18.618182 13.963636-32.581818 0-13.963636-4.654545-23.272727-13.963636-32.581818l-111.709091-111.709091c-18.618182-18.618182-46.545455-18.618182-65.163636 0l-153.6 153.6-176.872728-176.872727-148.945454 148.945454-46.545455 46.545455-111.709091 111.709091c-9.309091 9.309091-13.963636 18.618182-13.963636 32.581818 0 13.963636 4.654545 23.272727 13.963636 32.581818l88.436364 88.436364 144.290909 144.290909 144.290909 144.290909 88.436364 88.436364c9.309091 9.309091 23.272727 13.963636 32.581818 13.963636s23.272727-4.654545 32.581818-13.963636l307.2-307.2-176.872727-176.872728z m-349.090909-288.581818l176.872727 176.872727 186.181818-186.181818 111.709091 111.709091-186.181818 186.181818 176.872727 176.872728-116.363636 116.363636-460.8-460.8 111.709091-121.018182z m186.181818 735.418182l-60.509091-60.509091 37.236364-37.236364c13.963636-13.963636 13.963636-32.581818 0-46.545454-13.963636-13.963636-32.581818-13.963636-46.545455 0l-37.236363 37.236363-97.745455-97.745454 37.236364-37.236364c13.963636-13.963636 13.963636-32.581818 0-46.545454-13.963636-13.963636-32.581818-13.963636-46.545455 0l-37.236363 37.236363-97.745455-97.745454 37.236364-37.236364c13.963636-13.963636 13.963636-32.581818 0-46.545454-13.963636-13.963636-32.581818-13.963636-46.545455 0l-37.236364 37.236363-60.50909-65.163636 111.70909-111.709091 460.8 460.8-116.363636 111.709091z" fill="#1afa29" p-id="4139"></path></svg>