<?xml version="1.0" standalone="no"?><!DOCTYPE svg PUBLIC "-//W3C//DTD SVG 1.1//EN" "http://www.w3.org/Graphics/SVG/1.1/DTD/svg11.dtd"><svg t="1591153754379" class="icon" viewBox="0 0 1024 1024" version="1.1" xmlns="http://www.w3.org/2000/svg" p-id="3664" xmlns:xlink="http://www.w3.org/1999/xlink" width="600" height="600"><defs><style type="text/css"></style></defs><path d="M260 941.5H74c-5.5 0-10-4.5-10-10s4.5-10 10-10h186c5.5 0 10 4.5 10 10s-4.5 10-10 10zM950 941.5H380c-5.5 0-10-4.5-10-10s4.5-10 10-10h570c5.5 0 10 4.5 10 10s-4.5 10-10 10z" p-id="3665" fill="#d4237a"></path><path d="M320 930.5m-16 0a16 16 0 1 0 32 0 16 16 0 1 0-32 0Z" p-id="3666" fill="#d4237a"></path><path d="M640 405.5c-5.5 0-10-4.5-10-10v-188c0-60.7-49.3-110-110-110h-16c-60.7 0-110 49.3-110 110v188c0 5.5-4.5 10-10 10s-10-4.5-10-10v-188c0-71.7 58.3-130 130-130h16c71.7 0 130 58.3 130 130v188c0 5.5-4.5 10-10 10z" p-id="3667" fill="#d4237a"></path><path d="M626 214.5H398c-5.5 0-10-4.5-10-10s4.5-10 10-10h228c5.5 0 10 4.5 10 10s-4.5 10-10 10zM888 875.5h-54.8c-15.2 0-23.1-20.8-38-64.1-5.3-15.4-10.8-31.4-16.4-43.9-5.4-12.1-9.1-16.9-11-18.9-5.9 7.9-15 35.7-20.6 52.9-15.5 47.3-25.1 74-43 74h-63c-16.1 0-28.3-17.4-41.2-35.7-7.4-10.6-19.9-28.3-26.3-28.3H448c-0.1 0-2.7 0.1-8.3 6.7-4.8 5.6-9.8 13.5-14.7 21.1-11.9 18.6-23.1 36.2-38.7 36.2H320c-17.5 0-27.4-26.7-43.5-73.8-4.7-13.7-9.1-26.6-13.4-37.1-3.6-8.8-6.2-13.3-7.8-15.6-1.9 2.2-5.2 7.3-9.8 18.6-5.1 12.3-10 28-14.8 43.1-13.9 43.8-21.3 64.8-36.5 64.8H136c-22.1 0-40-17.9-40-40v-310c0-46.4 37.5-70.7 59.8-81.1 18.1-8.4 58.9-22.3 114.7-33.9 73.4-15.3 152.6-23.1 235.5-23.1 82.8 0 164.8 8.6 243.7 25.6 70.8 15.2 109.7 31 110.1 31.2 11.2 4.6 27.4 12.7 41.2 25.1 17.9 16.1 27 35 27 56.2v310c0 22.1-17.9 40-40 40z m-53-20h53c11 0 20-9 20-20v-310c0-34.7-35-54.2-55.8-62.7-1.3-0.6-140.3-55.3-346.2-55.3-182.8 0-308.7 39.8-341.8 55.1-18 8.3-48.2 27.6-48.2 62.9v310c0 11 9 20 20 20h56.2c5.3-6.2 13.8-32.9 19.5-50.9 15.2-47.8 25.5-77.1 44.4-77.1 15.7 0 23.9 22 39.4 67.7 4.9 14.5 10 29.4 15 41.1 5.9 14 9.5 18.1 10.8 19.2h65s2.4-0.2 7.7-6.5c4.6-5.4 9.5-13 14.2-20.5 12.2-19.1 23.7-37.1 39.9-37.1h125.7c16.8 0 29.3 17.8 42.6 36.7 5.3 7.5 10.7 15.2 15.8 20.6 5.9 6.3 8.6 6.6 9.1 6.6h61.9c1.2-1 4.8-5 10.6-19.1 4.8-11.7 9.7-26.7 14.5-41.2 15-45.8 22.9-67.8 38.9-67.8 19.4 0 30.5 29.4 47.1 77.4 6 18.2 15.2 45 20.7 50.9z" p-id="3668" fill="#d4237a"></path><path d="M909 579.5H111c-5.5 0-10-4.5-10-10s4.5-10 10-10h798c5.5 0 10 4.5 10 10s-4.5 10-10 10z" p-id="3669" fill="#d4237a"></path></svg>