<?xml version="1.0" standalone="no"?><!DOCTYPE svg PUBLIC "-//W3C//DTD SVG 1.1//EN" "http://www.w3.org/Graphics/SVG/1.1/DTD/svg11.dtd"><svg t="1592035227562" class="icon" viewBox="0 0 1024 1024" version="1.1" xmlns="http://www.w3.org/2000/svg" p-id="3930" xmlns:xlink="http://www.w3.org/1999/xlink" width="600" height="600"><defs><style type="text/css"></style></defs><path d="M768 948h-75a15 15 0 0 1 0-30h58l-61.9-487.1a15.1 15.1 0 0 1 1-7.6l69-167a15 15 0 0 1 27.8 11.4l-67.5 163.4 63.5 500A15 15 0 0 1 768 948zM651 948h-14.7a15 15 0 0 1 0-30H651a15 15 0 0 1 0 30zM589.7 948H256a15 15 0 0 1-14.9-16.9L304.6 431l-67.5-168.4a15 15 0 1 1 27.8-11.2l69 172a14.9 14.9 0 0 1 1 7.5L273 918h316.7a15 15 0 0 1 0 30z" p-id="3931" fill="#d4237a"></path><path d="M205.8 610.1a15.6 15.6 0 0 1-9.9-3.6l-112-97.8a15 15 0 0 1-3-19.2c56.9-92.7 157-235.9 158-237.4a15 15 0 0 1 6.3-5.1l141.3-61.3a15 15 0 1 1 12 27.6L261 272.8c-15 21.5-95.8 138.1-147.8 221.6l90.4 78.9 101-132.9a15 15 0 0 1 23.8 18.2L217.7 604.2a15.4 15.4 0 0 1-10.4 5.9zM819.8 618.5h-1.7a14.8 14.8 0 0 1-10.4-6l-112.3-152a15 15 0 1 1 24.2-17.8l102.6 138.8 90.3-78.8c-44.1-73-132.7-204.8-148.9-228.8l-145.7-58.5a15 15 0 0 1 11.2-27.8L779 247.8a14.9 14.9 0 0 1 6.9 5.5c1.1 1.7 113.3 167.6 158.9 244.8a15.1 15.1 0 0 1-3.1 18.9l-112.1 97.8a14.8 14.8 0 0 1-9.8 3.7z" p-id="3932" fill="#d4237a"></path><path d="M510.6 340.3c-37.4 0-72.7-10.1-99.5-28.3-28.6-19.4-44.4-45.9-44.4-74.4 0-20 1.4-34.5 19.4-52.6a15 15 0 0 1 21.3 21.1c-9.7 9.8-10.7 14.7-10.7 31.5 0 18.3 11.1 35.9 31.2 49.6 21.9 14.9 51.3 23.1 82.7 23.1s60.9-8.2 82.7-23.1c20.1-13.7 31.2-31.3 31.2-49.6 0-12.5-4.2-20.9-16.6-33.5a15 15 0 1 1 21.3-21.1c13.1 13.3 25.3 29.1 25.3 54.6 0 28.5-15.7 55-44.3 74.4-26.8 18.2-62.2 28.3-99.6 28.3zM512.5 761C431.7 761 366 695.3 366 614.5S431.7 468 512.5 468 659 533.7 659 614.5 593.3 761 512.5 761z m0-263A116.5 116.5 0 1 0 629 614.5 116.7 116.7 0 0 0 512.5 498z" p-id="3933" fill="#d4237a"></path><path d="M514.5 709.6a92.2 92.2 0 0 1-79.4-45.8 15 15 0 0 1 26-15.1 61.6 61.6 0 0 0 106.8 0 15 15 0 0 1 26 15.1 92.2 92.2 0 0 1-79.4 45.8z" p-id="3934" fill="#d4237a"></path></svg>