<?xml version="1.0" standalone="no"?><!DOCTYPE svg PUBLIC "-//W3C//DTD SVG 1.1//EN" "http://www.w3.org/Graphics/SVG/1.1/DTD/svg11.dtd"><svg t="1592035313078" class="icon" viewBox="0 0 1024 1024" version="1.1" xmlns="http://www.w3.org/2000/svg" p-id="4247" xmlns:xlink="http://www.w3.org/1999/xlink" width="600" height="600"><defs><style type="text/css"></style></defs><path d="M196.142587 916.534493c-21.387698-102.067416-39.869125-204.058082-64.710578-304.477929-19.842462-80.224334-10.059381-160.520302-14.444371-244.408175 46.382651 0 90.339999-0.839135 134.241063 0.393984 18.604227 0.521901 31.810363-5.413441 45.031849-18.24606 72.67724-70.528237 146.173147-140.222455 219.418338-210.162275 4.84549-4.63059 9.987748-8.95418 16.516624-14.782072 22.308699 20.395063 44.469015 39.874242 65.749263 60.264188 57.173717 54.773997 114.301384 109.609394 170.6769 165.196942 13.206136 13.021936 26.806256 18.38421 45.282566 17.708809 35.499485-1.294519 71.075721-0.378634 108.586059-0.378634 1.279169 92.033618 4.548723 180.613481-17.616709 268.671444-21.546315 85.601959-37.720122 172.559836-55.705232 259.036746-3.126288 15.017439-7.567561 23.367851-25.839205 23.306451-202.75333-0.670284-405.506661-0.414451-608.265108-0.491201C209.271973 918.166712 203.479898 917.194544 196.142587 916.534493zM882.656993 536.570269c-13.620587 0-23.598101 0-33.580733 0-218.026603 0-436.048089 0-654.074691 0-37.489872 0-37.285205-0.0307-29.635777 35.806486 20.031779 93.865387 40.385909 187.669375 59.327837 281.754779 3.612372 17.95441 10.888283 23.736251 28.673842 23.685085 177.993744-0.480967 355.992605-0.511667 533.986349 0.040933 18.179543 0.056283 24.90797-6.308859 28.320791-23.956268 12.095818-62.500175 26.008055-124.647299 39.239774-186.927457C863.883915 624.776615 872.868795 582.58452 882.656993 536.570269zM882.155559 408.668765c-13.426153 0-23.511118 0-33.590966 0-211.236776 0-422.473552 0-633.710328 0-56.523899 0-55.311248 0.035817-56.882067 55.986649-0.695868 24.780053 6.989377 31.52383 31.580113 31.421496 219.750922-0.905651 439.50696-0.527017 659.262999-0.532134 5.960925 0 12.668885 1.621986 17.693459-0.573068 5.971159-2.609504 14.633688-8.263429 14.945805-13.067986C882.99981 458.377255 882.155559 434.697287 882.155559 408.668765zM345.196422 358.197891c1.448019 1.93922 2.901154 3.873322 4.349173 5.812542 121.961045 0 243.916974 0 370.498376 0-5.904642-7.787578-7.982012-11.4153-10.867816-14.209004-54.502813-52.737561-109.27681-105.193704-163.52379-158.192215-10.704082-10.458482-18.164193-8.370879-27.829591 1.105202-28.591975 28.024024-57.869585 55.347064-86.79926 83.028272C402.365023 303.173177 373.803748 330.706001 345.196422 358.197891z" p-id="4248" fill="#13227a"></path></svg>