<?xml version="1.0" standalone="no"?><!DOCTYPE svg PUBLIC "-//W3C//DTD SVG 1.1//EN" "http://www.w3.org/Graphics/SVG/1.1/DTD/svg11.dtd"><svg t="1592811850811" class="icon" viewBox="0 0 1024 1024" version="1.1" xmlns="http://www.w3.org/2000/svg" p-id="3093" xmlns:xlink="http://www.w3.org/1999/xlink" width="32" height="32"><defs><style type="text/css"></style></defs><path d="M719.980333 508.365216c11.525498-59.919694-0.985444-120.737852-35.224246-171.252339-34.232662-50.504254-86.079494-84.656075-145.993049-96.1652-14.301727-2.743484-28.872584-4.134157-43.308365-4.134157-109.219517 0-203.476251 77.960583-224.12043 185.370895-11.508102 59.916625 1.004887 120.729665 35.237549 171.240059 34.231639 50.512441 86.080517 84.667332 145.994072 96.172363 14.32424 2.753717 28.916587 4.149507 43.372833 4.149507 34.381042 0 68.739571-7.971555 99.754958-23.098068 0.789992 1.810229 1.74576 3.557012 2.866281 5.231141l65.143673 96.15292c6.15928 9.096169 16.402575 14.525831 27.399023 14.525831 6.594185 0 12.973476-1.959631 18.436908-5.665023 15.07023-10.19213 19.039635-30.779004 8.846482-45.902446l-65.11809-96.116081c-1.140986-1.697665-2.411933-3.263323-3.808746-4.687766C686.242951 600.782046 710.580243 557.404096 719.980333 508.365216zM632.508119 448.946942l-25.295106-19.683295c-3.426029-3.453658-8.411577-5.677303-14.014178-6.261611-0.995677-0.12075-2.073218-0.165776-3.174296-0.140193l-0.063445 0c-5.037736 0-9.906627 1.362021-13.68672 3.816932-4.116761 2.639107-6.822382 6.483668-7.529487 10.649548l-22.390963 52.725852-36.259832-112.568798c-2.460028-7.275707-10.987239-12.357446-20.736277-12.357446l-0.381693 0.00307-0.36225-0.00307c-8.699126 0-16.455787 3.961218-19.763113 10.090822l-0.11154 0.205685-47.718815 111.935372-43.286875-33.464159c-4.01443-3.099594-9.354042-4.806469-15.035438-4.806469l-28.629038 0c0.490164-4.816702 1.184989-9.637498 2.110057-14.45113 14.682397-76.346829 81.673138-131.760906 159.293983-131.760906 10.270924 0 20.641109 0.992607 30.818913 2.947122 42.594097 8.178263 79.456656 32.458249 103.799064 68.366064 15.369036 22.670326 24.571628 48.257074 27.212782 74.756611L632.508119 448.946942zM353.598852 482.432591l61.243853 47.370891c4.051269 3.080152 9.444093 4.776793 15.180747 4.776793l0.206708-0.001023 0.421602 0.004093c8.617261 0 16.334014-3.960195 19.659759-10.088776l0.11461-0.211824 35.724643-83.791381 36.46961 113.255437c2.422166 7.274684 10.916631 12.356422 20.658506 12.356422l0.37146 0.001023c10.316973 0 19.000749-5.614881 20.920472-13.43601l34.913161-82.10088 8.484232 6.610558c1.810229 1.396813 3.845585 2.496867 6.051833 3.270487 3.114944 1.234107 6.445806 1.859347 9.905604 1.859347l33.231869 0c-0.488117 4.535293-1.154289 9.071609-2.025123 13.599739-14.684444 76.352969-81.661881 131.770116-159.25919 131.770116-10.276041 0-20.649296-0.99363-30.834262-2.951215-42.600237-8.170077-79.466889-32.44597-103.804181-68.353784-15.20633-22.434965-24.384363-47.728024-27.137057-73.940013L353.598852 482.432591z" p-id="3094" fill="#13227a"></path><path d="M511.720126 0c-282.153148 0-511.699148 229.53679-511.699148 511.674589 0 282.154171 229.546 511.703241 511.699148 511.703241 102.07991 0 200.771653-30.181393 285.420565-87.285972l0.168846-0.001023 1.324158-0.935302c8.17724-5.776563 13.059434-15.175631 13.059434-25.142633 0-16.946974-13.801331-30.731932-30.764678-30.731932-7.011694 0-13.888312 2.503007-19.392676 7.055696-73.768097 50.595328-157.812235 76.245522-249.814626 76.245522-248.615311 0-450.877921-202.27489-450.877921-450.906573 0-248.603031 202.26261-450.856431 450.877921-450.856431 248.616334 0 450.879967 202.252377 450.879967 450.856431 0 102.710266-24.973788 182.081988-80.977289 257.357416l-2.808976 3.827165 0.325411 0.280386c-2.185782 4.269233-3.323699 8.952906-3.323699 13.765515 0 16.873296 13.740956 30.601972 30.629601 30.601972 7.692193 0 15.084557-2.978844 20.754696-8.273431l0.547469 0.182149 2.196015-3.01773c0.103354-0.141216 0.199545-0.281409 0.294712-0.420579 0.039909-0.057305 0.077771-0.11461 0.119727-0.171915 1.041726-1.329275 1.944282-2.701528 2.75781-4.186346 56.545854-80.499405 90.301655-188.865485 90.301655-289.945625C1023.41825 229.535767 793.871227 0 511.720126 0z" p-id="3095" fill="#13227a"></path></svg>