<?xml version="1.0" standalone="no"?><!DOCTYPE svg PUBLIC "-//W3C//DTD SVG 1.1//EN" "http://www.w3.org/Graphics/SVG/1.1/DTD/svg11.dtd"><svg t="1582010640190" class="icon" viewBox="0 0 1024 1024" version="1.1" xmlns="http://www.w3.org/2000/svg" p-id="2816" width="200" height="200"><path d="M876.5 808.7h-64.4l-2.5-40.8-13.1-212.3H565.6L549 886.1h337.3l-9.8-77.4z m-174-0.9c0 12-9.7 21.8-21.8 21.8s-21.8-9.7-21.8-21.8v-174c0-12 9.7-21.8 21.8-21.8s21.8 9.7 21.8 21.8v174z" fill="#13227a" p-id="2817"></path><path d="M537.4 137.9h-284l-17.2 584.2-1.2 42.2h-85.1l-12.2 121.8h367.8L524.2 512h24.2l-11-374.1z m-200 100.9h116c8 0 14.5 6.5 14.5 14.5s-6.5 14.5-14.5 14.5h-116c-8 0-14.5-6.5-14.5-14.5s6.5-14.5 14.5-14.5z m-14.5 101.5h145c8 0 14.5 6.5 14.5 14.5s-6.5 14.5-14.5 14.5h-145c-8 0-14.5-6.5-14.5-14.5s6.5-14.5 14.5-14.5z m159.5 137.8h-174c-12 0-21.8-9.7-21.8-21.8s9.7-21.8 21.8-21.8h174c12 0 21.8 9.7 21.8 21.8s-9.8 21.8-21.8 21.8z" fill="#13227a" p-id="2818"></path></svg>