<?xml version="1.0" standalone="no"?><!DOCTYPE svg PUBLIC "-//W3C//DTD SVG 1.1//EN" "http://www.w3.org/Graphics/SVG/1.1/DTD/svg11.dtd"><svg t="1586737898646" class="icon" viewBox="0 0 1024 1024" version="1.1" xmlns="http://www.w3.org/2000/svg" p-id="5471" width="200" height="200"><path d="M951.035 30.238h-883.062c-33.106 0-60.041 26.926-60.041 60.039v598.713c0 33.115 26.937 60.042 60.041 60.042h313.068v-31.791h-313.068c-15.575 0-28.252-12.666-28.252-28.251v-598.711c0-15.584 12.676-28.251 28.252-28.251h883.061c15.577 0 28.252 12.667 28.252 28.251v598.713c0 15.585-12.676 28.251-28.252 28.251h-97.139v31.791h97.139c33.106 0 60.042-26.926 60.042-60.042v-598.713c0-33.115-26.937-60.041-60.042-60.041z" p-id="5472" fill="#1afa29"></path><path d="M896.281 152.968v473.332h-42.387v31.79h74.177v-536.912h-837.137v536.912h290.094v-31.79h-258.304v-473.332z" p-id="5473" fill="#1afa29"></path><path d="M472.413 995.859h289.639v-462.735h-289.639v462.735zM504.205 564.916h226.060v399.154h-226.060v-399.154zM564.059 429.702l-10.297 5.506 29.461 44.187 8.362-4.181c17.219-8.589 37.73-8.715 55.189 0l8.319 4.161 29.719-44.084-10.243-5.567c-33.809-18.337-75.876-18.607-110.512-0.021zM699.239 408.819l29.606-44.043-9.614-5.732c-60.692-36.135-139.681-35.971-200.106 0l-9.613 5.733 29.564 44.001 8.58-4.969c43.762-25.354 99.839-25.292 142.992-0.020l8.59 5.029z" p-id="5474" fill="#1afa29"></path><path d="M619.287 246.164c-53.418 0-105.489 14.924-150.587 43.155l-9.314 5.838 29.679 43.793 8.651-5.359c72.46-44.995 170.22-45.161 242.927 0l8.683 5.381 29.617-44.043-9.271-5.815c-44.862-28.086-96.863-42.946-150.384-42.946zM546.591 631.601h61.81v61.798h-61.81v-61.798zM630.485 631.601h61.81v61.798h-61.81v-61.798zM546.591 713.268h61.81v61.82h-61.81v-61.822zM630.485 713.268h61.81v61.82h-61.81v-61.822zM546.591 794.958h61.81v61.821h-61.81v-61.822zM630.485 794.958h61.81v61.821h-61.81v-61.822z" p-id="5475" fill="#1afa29"></path></svg>