<?xml version="1.0" standalone="no"?><!DOCTYPE svg PUBLIC "-//W3C//DTD SVG 1.1//EN" "http://www.w3.org/Graphics/SVG/1.1/DTD/svg11.dtd"><svg t="1586738033929" class="icon" viewBox="0 0 1578 1024" version="1.1" xmlns="http://www.w3.org/2000/svg" p-id="5654" width="200" height="200"><path d="M110.939976 513.10389a55.469988 55.469988 0 1 0-55.628988 55.310988 55.469988 55.469988 0 0 0 55.628988-55.310988z m276.555941 0a55.469988 55.469988 0 1 0-54.676989 55.310988 55.627988 55.627988 0 0 0 55.469989-55.310988z m231.54695-55.628988h773.881834l-362.771922-361.819923a55.469988 55.469988 0 0 1 79.241983-79.242983l450.097903 450.730904a63.393986 63.393986 0 0 1 0 89.70298l-33.757993 33.756993-416.33991 416.815911a55.627988 55.627988 0 0 1-79.241983 0 55.310988 55.310988 0 0 1 0-79.242983l360.869922-359.760923h-771.979834a55.469988 55.469988 0 0 1-55.469988-55.469988 55.469988 55.469988 0 0 1 55.469988-55.469988z" p-id="5655" fill="#d4237a"></path></svg>