<?xml version="1.0" standalone="no"?><!DOCTYPE svg PUBLIC "-//W3C//DTD SVG 1.1//EN" "http://www.w3.org/Graphics/SVG/1.1/DTD/svg11.dtd"><svg t="1591153520008" class="icon" viewBox="0 0 1055 1024" version="1.1" xmlns="http://www.w3.org/2000/svg" p-id="2254" xmlns:xlink="http://www.w3.org/1999/xlink" width="618.1640625" height="600"><defs><style type="text/css"></style></defs><path d="M279.272727 0a31.030303 31.030303 0 0 1 31.030303 31.030303v124.121212a31.030303 31.030303 0 1 1-62.060606 0V31.030303a31.030303 31.030303 0 0 1 31.030303-31.030303zM713.69697 0a31.030303 31.030303 0 0 1 31.030303 31.030303v124.121212a31.030303 31.030303 0 0 1-62.060606 0V31.030303a31.030303 31.030303 0 0 1 31.030303-31.030303z" p-id="2255" fill="#d4237a"></path><path d="M806.787879 1024A248.242424 248.242424 0 1 0 806.787879 527.515152a248.242424 248.242424 0 0 0 0 496.484848z m0-62.060606A186.181818 186.181818 0 1 1 806.787879 589.575758a186.181818 186.181818 0 0 1 0 372.363636z" p-id="2256" fill="#d4237a"></path><path d="M744.727273 651.636364m31.030303 0l0 0q31.030303 0 31.030303 31.030303l0 124.121212q0 31.030303-31.030303 31.030303l0 0q-31.030303 0-31.030303-31.030303l0-124.121212q0-31.030303 31.030303-31.030303Z" p-id="2257" fill="#d4237a"></path><path d="M744.727273 837.818182m0-31.030303l0 0q0-31.030303 31.030303-31.030303l124.121212 0q31.030303 0 31.030303 31.030303l0 0q0 31.030303-31.030303 31.030303l-124.121212 0q-31.030303 0-31.030303-31.030303Z" p-id="2258" fill="#d4237a"></path><path d="M537.258667 930.909091H93.090909a31.030303 31.030303 0 0 1-31.030303-31.030303V155.151515a31.030303 31.030303 0 0 1 31.030303-31.030303h806.787879a31.030303 31.030303 0 0 1 31.030303 31.030303v311.513212a31.030303 31.030303 0 1 0 62.060606 0V155.151515a93.090909 93.090909 0 0 0-93.090909-93.090909H93.090909a93.090909 93.090909 0 0 0-93.090909 93.090909v744.727273a93.090909 93.090909 0 0 0 93.090909 93.090909h444.167758a31.030303 31.030303 0 0 0 0-62.060606z" p-id="2259" fill="#d4237a"></path></svg>