<?xml version="1.0" standalone="no"?><!DOCTYPE svg PUBLIC "-//W3C//DTD SVG 1.1//EN" "http://www.w3.org/Graphics/SVG/1.1/DTD/svg11.dtd"><svg t="1593594470047" class="icon" viewBox="0 0 1025 1024" version="1.1" xmlns="http://www.w3.org/2000/svg" p-id="4187" xmlns:xlink="http://www.w3.org/1999/xlink" width="200.1953125" height="200"><defs><style type="text/css"></style></defs><path d="M1024.955768 208.577433c0.078795-2.88163-0.070608-6.664793-0.89437-10.842952-0.884137-6.075369-2.571568-12.385075-5.947456-15.965623-7.916297-13.130042-34.836413-9.942443-34.836413-9.942443L42.084491 171.826414c0 0-26.926256-3.187599-34.841529 9.942443-3.37691 3.580548-5.061272 9.885138-5.946432 15.960507-0.819668 4.177136-0.968048 7.960299-0.889253 10.848069-0.067538 2.976798 0.00307 5.039783 0.00307 5.039783l0 353.320001c0.11768-0.121773 0.24457-0.223081 0.356111-0.345877l0 242.571664c0 0-2.096754 28.131711 6.831592 35.552727 15.315824 12.732999 32.616862 8.522094 32.616862 8.522094l373.752356 0 197.428511 0 373.746216 0c0 0 17.305131 4.210905 32.615838-8.522094 8.928347-7.421017 6.830569-35.552727 6.830569-35.552727L1024.588401 566.592362c0.11768 0.122797 0.245593 0.224104 0.358157 0.345877L1024.946558 213.618239C1024.946558 213.618239 1025.017166 211.55423 1024.955768 208.577433L1024.955768 208.577433zM942.017824 214.418464 546.288944 625.739461c-8.977465 9.334599-21.282722 14.007015-33.611515 14.051017-12.32163-0.044002-24.625864-4.716418-33.605376-14.051017L83.340103 214.418464 942.017824 214.418464 942.017824 214.418464zM41.733497 231.691873l265.652336 276.18318 0.179079 0.183172L41.733497 784.403087 41.733497 231.691873 41.733497 231.691873zM597.943394 810.648844 427.41351 810.648844 74.416873 810.648844l262.142395-272.471648 113.196085 117.672026c16.744359 17.423835 39.047318 27.03268 62.750159 27.03268 0.057305 0 0.110517-0.017396 0.172939-0.017396 0.061398 0 0.11768 0.017396 0.179079 0.017396 23.702841 0 46.0058-9.608845 62.750159-27.03268l113.191992-117.672026L950.941054 810.648844 597.943394 810.648844 597.943394 810.648844zM983.629547 784.403087 717.800179 508.058225l0.171915-0.183172 265.657452-276.18318L983.629547 784.403087 983.629547 784.403087zM983.629547 784.403087" p-id="4188" fill="#1296db"></path></svg>