<?xml version="1.0" standalone="no"?><!DOCTYPE svg PUBLIC "-//W3C//DTD SVG 1.1//EN" "http://www.w3.org/Graphics/SVG/1.1/DTD/svg11.dtd"><svg t="1584148232298" class="icon" viewBox="0 0 1024 1024" version="1.1" xmlns="http://www.w3.org/2000/svg" p-id="4848" xmlns:xlink="http://www.w3.org/1999/xlink" width="128" height="128"><defs><style type="text/css"></style></defs><path d="M293.3 430.5l0.1 0.1h-0.2z" fill="#B7C0CD" p-id="4849"></path><path d="M515.3 78.2c-230 0-416.4 186.5-416.4 416.4 0 230 186.5 416.4 416.4 416.4 230 0 416.4-186.4 416.4-416.4 0.1-229.9-186.4-416.4-416.4-416.4z m176.6 550.7l0.1 0.1c11.7 11.7 11.6 30.7-0.1 42.3-11.7 11.7-30.7 11.6-42.3-0.1l-0.1-0.1L515.3 537 381.1 671.2c-0.1 0-0.1 0.1-0.1 0.2l-0.2 0.1c-11.7 11.7-30.6 11.7-42.3 0-11.7-11.7-11.7-30.6 0-42.3l0.1-0.2 0.2-0.1L473 494.6 338.7 360.4h-0.1l-0.1-0.1c-11.7-11.7-11.6-30.7 0.1-42.3 11.7-11.7 30.7-11.6 42.3 0.1l0.1 0.1 134.3 134.3L649.6 318l0.1-0.1 0.1-0.1c11.7-11.7 30.6-11.7 42.3 0 11.7 11.7 11.7 30.6 0 42.3l-0.1 0.1h-0.1L557.6 494.6l134.3 134.3z" fill="#EF4F33" p-id="4850"></path></svg>