<?xml version="1.0" standalone="no"?><!DOCTYPE svg PUBLIC "-//W3C//DTD SVG 1.1//EN" "http://www.w3.org/Graphics/SVG/1.1/DTD/svg11.dtd"><svg t="1593681427940" class="icon" viewBox="0 0 1862 1024" version="1.1" xmlns="http://www.w3.org/2000/svg" p-id="4062" xmlns:xlink="http://www.w3.org/1999/xlink" width="363.671875" height="200"><defs><style type="text/css"></style></defs><path d="M1837.460015 490.53696l-21.31968-26.958196c-3.710604-4.705745-92.659898-116.413905-245.072989-228.37248C1367.103302 85.352262 1144.845033 6.145862 928.316509 6.145862c-216.51456 0-438.77376 79.2064-642.742458 229.061353C133.203782 347.140655 44.21632 458.873949 40.511302 463.55456l-21.337367 26.9824c-11.370124 14.391855-11.370124 34.691258 0 49.057978l21.325265 26.981469c3.71712 4.705745 92.761367 116.465105 245.074851 228.373411C489.541818 944.792669 711.801018 1024 928.316509 1024c216.529455 0 438.787724-79.207331 642.750836-229.049251 152.455913-112.008844 241.3568-223.668596 245.048785-228.348276l21.343884-27.007535C1848.836655 525.228218 1848.836655 504.928815 1837.460015 490.53696zM928.316509 906.334022c-216.095651 0-391.261091-175.171025-391.261091-391.267607 0-216.083549 175.166371-391.267607 391.261091-391.267607 216.104029 0 391.269469 175.184058 391.269469 391.267607C1319.585047 731.162996 1144.419607 906.334022 928.316509 906.334022z" p-id="4063" fill="#d4237a"></path><path d="M928.329542 247.370473c-147.851636 0-267.720145 119.856407-267.720145 267.708044 0.006516 147.839535 119.861993 267.707113 267.707113 267.707113 147.852567 0 267.71456-119.868509 267.71456-267.720145C1196.031069 367.22688 1076.169076 247.370473 928.329542 247.370473zM1132.843753 515.066415c0 112.760087-91.747607 204.519796-204.527244 204.519796-22.745833 0-41.186211-18.422691-41.186211-41.174109 0-11.37664 4.611724-21.676218 12.063651-29.135593 7.452858-7.446342 17.752436-12.064582 29.121629-12.051549 67.361513-0.013033 122.160407-54.802618 122.15296-122.158545 0-22.752349 18.440378-41.187142 41.187142-41.187142C1114.401513 473.879273 1132.843753 492.314065 1132.843753 515.066415z" p-id="4064" fill="#d4237a"></path></svg>