<?xml version="1.0" standalone="no"?><!DOCTYPE svg PUBLIC "-//W3C//DTD SVG 1.1//EN" "http://www.w3.org/Graphics/SVG/1.1/DTD/svg11.dtd"><svg t="1593594480034" class="icon" viewBox="0 0 1072 1024" version="1.1" xmlns="http://www.w3.org/2000/svg" p-id="4595" xmlns:xlink="http://www.w3.org/1999/xlink" width="209.375" height="200"><defs><style type="text/css"></style></defs><path d="M1019.12381 361.545143V906.24A69.485714 69.485714 0 0 1 949.052952 975.238095H118.832762a70.607238 70.607238 0 0 1-49.566476-20.187428 68.36419 68.36419 0 0 1-20.504381-48.761905v-544.670476a69.485714 69.485714 0 0 1 70.070857-68.998096h830.22019C985.965714 292.571429 1019.12381 321.633524 1019.12381 361.569524zM937.325714 243.809524H135.43619a135.168 135.168 0 0 0-95.792761 39.789714A136.045714 136.045714 0 0 0 0 379.684571v512C0 963.218286 60.611048 1024 135.43619 1024h801.889524a135.168 135.168 0 0 0 95.792762-39.789714A136.045714 136.045714 0 0 0 1072.761905 888.100571v-512C1069.226667 304.566857 1008.615619 243.809524 937.325714 243.809524zM310.637714 135.875048c0-35.766857 28.525714-92.281905 67.705905-92.281905H694.369524c35.620571 0 67.705905 53.00419 67.705905 92.281905V203.824762h43.300571V135.875048a136.045714 136.045714 0 0 0-39.643429-96.085334A135.168 135.168 0 0 0 669.93981 0h-267.215239a135.168 135.168 0 0 0-95.792761 39.789714 136.045714 136.045714 0 0 0-39.643429 96.085334V203.824762h67.681524l-24.380953-3.559619 0.048762-64.365714zM718.652952 588.8H573.927619v-144.725333h-100.595809v144.725333h-138.288762v100.693333h138.288762v144.676572h100.595809V689.493333h151.210667v-100.693333h-6.460953z" p-id="4596" fill="#1296db"></path></svg>