<?xml version="1.0" standalone="no"?><!DOCTYPE svg PUBLIC "-//W3C//DTD SVG 1.1//EN" "http://www.w3.org/Graphics/SVG/1.1/DTD/svg11.dtd"><svg t="1582363854800" class="icon" viewBox="0 0 1024 1024" version="1.1" xmlns="http://www.w3.org/2000/svg" p-id="4971" xmlns:xlink="http://www.w3.org/1999/xlink" width="128" height="128"><defs><style type="text/css"></style></defs><path d="M896 443.52c52.48-39.04 96-85.76 124.16-139.52a31.68 31.68 0 0 0-13.44-42.88c-15.36-8.32-35.2-2.56-42.88 13.44-70.4 133.12-251.52 222.72-451.84 222.72S130.56 407.68 60.16 274.56a31.36 31.36 0 0 0-42.88-13.44c-16 7.68-21.76 27.52-13.44 42.88C32 357.76 75.52 405.12 128 443.52L7.04 594.56c-10.88 14.08-8.96 34.56 5.12 45.44 5.76 4.48 12.8 7.04 19.84 7.04 9.6 0 18.56-3.84 24.96-12.16l125.44-156.16c55.68 31.36 119.68 54.4 188.8 67.84l-80 174.72c-7.68 16 0 35.2 16 42.24 4.48 1.92 8.96 3.2 13.44 3.2 12.16 0 23.68-7.04 29.44-18.56l87.04-191.36c24.32 2.56 49.28 4.48 74.88 4.48 20.48 0 40.32-1.92 60.16-3.2l87.04 190.08c5.12 11.52 16.64 18.56 28.8 18.56 4.48 0 8.96-0.64 13.44-3.2 16-7.04 23.04-26.24 16-42.24l-78.72-172.16c74.88-12.8 143.36-37.12 202.88-71.04l124.8 156.16c6.4 7.68 15.36 12.16 24.96 12.16 7.04 0 14.08-2.56 19.84-7.04 14.08-10.88 16-31.36 5.12-44.8L896 443.52z" p-id="4972" fill="#8a8a8a"></path></svg>