<?xml version="1.0" standalone="no"?><!DOCTYPE svg PUBLIC "-//W3C//DTD SVG 1.1//EN" "http://www.w3.org/Graphics/SVG/1.1/DTD/svg11.dtd"><svg t="1591781069490" class="icon" viewBox="0 0 1024 1024" version="1.1" xmlns="http://www.w3.org/2000/svg" p-id="4174" xmlns:xlink="http://www.w3.org/1999/xlink" width="600" height="600"><defs><style type="text/css"></style></defs><path d="M682.507372 400.939555c-6.304589-23.760147-14.045901-46.267766-22.691815-67.686588-80.645738 17.824971-106.931405-52.202942-73.087599-101.162004-12.589736-18.912745-30.946826-32.406061-56.166207-39.059598-33.843806 51.834552-126.175701 25.733081-117.8992-45.014216-26.466792 0-52.922327 0-79.023798 0 6.65763 75.797313-84.609003 91.816149-123.481336 45.014216-19.10001 12.589736-45.201481 17.990746-50.768267 44.811602 37.069267 44.460608 3.225461 113.954355-73.087599 95.411023-8.276501 21.419845-16.387225 43.926442-22.319331 67.686588 63.905472 10.082636 63.905472 108.000759 0 118.083395 5.933129 23.575952 14.042831 46.083571 22.319331 67.502393 80.645738-17.824971 107.650789 52.202942 73.087599 101.180424 12.773931 19.078521 30.949896 32.756031 56.516178 39.226397 33.843806-51.834552 126.009925-25.733081 117.733425 45.198411 26.101471 0 52.555983 0 79.023798 0-6.838755-76.148307 84.609003-92.000344 123.668601-45.198411 19.081591-12.589736 45.364187-18.359137 50.396807-44.995797-36.719296-44.645826-2.87549-113.77016 73.087599-95.411023 8.644891-21.419845 16.387225-43.926442 22.691815-67.502393C615.889115 502.635725 615.889115 417.142585 682.507372 400.939555zM373.23354 577.161069c-64.792679 0-117.177769-52.552913-117.177769-117.179816 0-64.811098 52.384068-117.179816 117.177769-117.179816 64.442708 0 117.198236 52.368718 117.198236 117.179816C490.432799 524.608156 437.676248 577.161069 373.23354 577.161069z" p-id="4175" fill="#d4237a"></path><path d="M960.610274 695.982268c-2.157129-12.958126-4.497431-25.38311-7.90811-37.087687-43.739177 4.313236-53.824883-34.562167-32.220842-58.138118-6.119371-10.986215-14.765285-19.262716-27.723412-24.313755-20.884656 25.216311-68.771293 6.119371-59.594283-31.134091-13.861706-1.806135-27.723412-3.243881-41.936111-4.866844-0.719384 40.331567-50.231031 43.392276-67.871807 15.85306-11.336186 5.750981-25.197892 7.188726-29.693276 20.866237 16.734126 25.935696-5.40408 60.497862-44.833091 46.083571-5.750981 10.80202-11.336186 22.156626-16.018835 34.212196 33.124422 9.364275 27.005051 61.567217-7.188726 62.820768 1.787716 13.143345 4.313236 25.197892 7.557116 36.903491 43.926442-4.313236 53.640688 34.562167 32.756031 58.323337 5.40101 10.80202 14.045901 19.078521 26.820855 24.12956 21.419845-25.197892 68.590168-5.7694 59.761082 31.668257 14.230096 1.27197 28.27702 2.89391 41.769312 4.681626 1.25355-40.682561 50.765197-43.558052 68.409043-16.553001 10.983145-5.585205 25.010627-6.65456 29.693276-20.516266-16.553001-25.935696 5.40101-60.497862 44.645826-46.267766 5.585205-10.80202 11.17041-22.138206 16.018835-34.028001C919.042553 745.659691 924.078243 700.479699 960.610274 695.982268zM785.644357 770.139222c-34.381042-3.963265-58.676377-35.097356-54.897308-69.475328 4.497431-34.028001 34.912138-58.691727 69.291133-54.544267 34.212196 3.963265 59.225893 34.727942 54.547337 69.291133C851.17177 749.622956 820.019259 774.102487 785.644357 770.139222z" p-id="4176" fill="#d4237a"></path></svg>