<?xml version="1.0" standalone="no"?><!DOCTYPE svg PUBLIC "-//W3C//DTD SVG 1.1//EN" "http://www.w3.org/Graphics/SVG/1.1/DTD/svg11.dtd"><svg t="1581996319747" class="icon" viewBox="0 0 1024 1024" version="1.1" xmlns="http://www.w3.org/2000/svg" p-id="2528" width="200" height="200"><path d="M480 832h-320c-19.2 0-32-12.8-32-32v-640c0-19.2 12.8-32 32-32H512v204.8c0 25.6 25.6 51.2 51.2 51.2H768v96c0 19.2 12.8 32 32 32s32-12.8 32-32v-128c0-6.4 0-19.2-6.4-25.6l-256-256C563.2 64 550.4 64 544 64H128c-32 0-64 25.6-64 64v704c0 32 32 64 64 64h352c19.2 0 32-12.8 32-32s-12.8-32-32-32z m243.2-512H608c-19.2 0-32-12.8-32-32V172.8L723.2 320z" p-id="2529" fill="#13227a"></path><path d="M736 512C614.4 512 512 614.4 512 736S614.4 960 736 960s224-102.4 224-224S857.6 512 736 512z m0 64c32 0 57.6 6.4 83.2 25.6l-217.6 217.6c-19.2-25.6-25.6-51.2-25.6-83.2C576 646.4 646.4 576 736 576z m0 320c-32 0-64-12.8-96-32l224-224c19.2 25.6 32 57.6 32 96 0 89.6-70.4 160-160 160z" p-id="2530" fill="#13227a"></path></svg>