<?xml version="1.0" standalone="no"?><!DOCTYPE svg PUBLIC "-//W3C//DTD SVG 1.1//EN" "http://www.w3.org/Graphics/SVG/1.1/DTD/svg11.dtd"><svg t="1592484201998" class="icon" viewBox="0 0 1024 1024" version="1.1" xmlns="http://www.w3.org/2000/svg" p-id="3081" xmlns:xlink="http://www.w3.org/1999/xlink" width="600" height="600"><defs><style type="text/css"></style></defs><path d="M896 512a384 384 0 1 0-384 384 384 384 0 0 0 384-384z m64 0A448 448 0 1 1 512 64a448 448 0 0 1 448 448z" p-id="3082" fill="#13227a"></path><path d="M320 544a32 32 0 0 1 0-64h384a32 32 0 0 1 0 64z" p-id="3083" fill="#13227a"></path><path d="M480 320a32 32 0 0 1 64 0v384a32 32 0 0 1-64 0z" p-id="3084" fill="#13227a"></path></svg>