<?xml version="1.0" standalone="no"?><!DOCTYPE svg PUBLIC "-//W3C//DTD SVG 1.1//EN" "http://www.w3.org/Graphics/SVG/1.1/DTD/svg11.dtd"><svg t="1582010994894" class="icon" viewBox="0 0 1024 1024" version="1.1" xmlns="http://www.w3.org/2000/svg" p-id="3309" width="200" height="200"><path d="M212.00791 666.75442h599.98418v40.207939H212.00791zM592.41588 626.54648h218.890228c-8.531775-128.905601-98.476403-235.542789-218.890228-268.971908v-81.018864h-60.31141V47.451749c24.709348-6.365832 44.820818-24.174363 54.340567-47.449749H437.553963c9.520749 23.275386 29.631219 41.083917 54.341567 47.449749V276.554708h-60.31141v81.018864c-120.412825 33.429119-210.357453 140.066307-218.890228 268.971908H592.41588zM471.79206 910.571991h80.41588v99.997363h-80.41588zM698.145092 1023.989l-49.999682-86.598716 69.640164-40.20894 49.998682 86.599716zM325.836909 1023.999l-69.640164-40.20794 49.998681-86.597716 69.640164 40.206939zM431.58412 766.751783c0 44.412829 36.003051 80.41588 80.41588 80.41588s80.41588-36.003051 80.41588-80.41588v-19.581484H431.58412v19.581484z" p-id="3310" fill="#13227a"></path></svg>