<?xml version="1.0" standalone="no"?><!DOCTYPE svg PUBLIC "-//W3C//DTD SVG 1.1//EN" "http://www.w3.org/Graphics/SVG/1.1/DTD/svg11.dtd"><svg t="1582010904319" class="icon" viewBox="0 0 1024 1024" version="1.1" xmlns="http://www.w3.org/2000/svg" p-id="3146" width="200" height="200"><path d="M448 128a106.666667 106.666667 0 0 1 106.666667 106.666667v576a106.666667 106.666667 0 0 1-106.666667 106.666666H128a106.666667 106.666667 0 0 1-106.666667-106.666666V234.666667a106.666667 106.666667 0 0 1 106.666667-106.666667h320z m448 256a106.666667 106.666667 0 0 1 106.666667 106.666667v320a106.666667 106.666667 0 0 1-106.666667 106.666666H661.333333a42.666667 42.666667 0 1 1 0-85.333333h234.666667a21.333333 21.333333 0 0 0 21.333333-21.333333V490.666667a21.333333 21.333333 0 0 0-21.333333-21.333334H661.333333a42.666667 42.666667 0 1 1 0-85.333333z m-448-170.666667H128a21.333333 21.333333 0 0 0-21.333333 21.333334v554.666666a21.333333 21.333333 0 0 0 21.333333 21.333334h320a21.333333 21.333333 0 0 0 21.333333-21.333334V234.666667a21.333333 21.333333 0 0 0-21.333333-21.333334z m-64 458.666667a32 32 0 0 1 0 64h-170.666667a32 32 0 0 1 0-64z" p-id="3147" fill="#13227a"></path></svg>