<?xml version="1.0" standalone="no"?><!DOCTYPE svg PUBLIC "-//W3C//DTD SVG 1.1//EN" "http://www.w3.org/Graphics/SVG/1.1/DTD/svg11.dtd"><svg t="1593342306278" class="icon" viewBox="0 0 1024 1024" version="1.1" xmlns="http://www.w3.org/2000/svg" p-id="4240" xmlns:xlink="http://www.w3.org/1999/xlink" width="32" height="32"><defs><style type="text/css"></style></defs><path d="M888.32437 534.475897 521.100644 901.701606c-24.825427 24.796756-54.867888 41.024345-86.591712 49.067532 15.004345-17.522072 27.491252-37.211507 36.811916-58.651818 10.264192-6.014994 20.092437-12.939707 28.87175-21.718651l191.079753-191.062524L565.430082 553.46539l183.586791-183.577039c10.492399-10.492982 10.492399-27.508517 0-37.999452-10.492399-10.475586-27.491252-10.475586-37.98365 0L527.431082 515.483334l-36.821126-36.826743 0-78.290087 131.797137-131.782396c73.413021-73.426313 192.469461-73.426313 265.9183 0C961.737391 342.012468 961.737391 461.064934 888.32437 534.475897zM490.609956 628.276237 490.609956 552.312124l36.821126-36.82879 38.000024 37.982056L490.609956 628.276237zM266.766656 960.632787c-103.841285 0-188.028126-84.183308-188.028126-188.020234L78.73853 253.30103c0-103.836927 84.186841-188.020234 188.028126-188.020234s188.028126 84.183308 188.028126 188.020234l0 519.311523C454.794783 876.450503 370.607941 960.632787 266.766656 960.632787zM417.878485 260.628926c0-81.803097-69.303251-148.115386-151.111829-148.115386-81.806531 0-152.614105 66.312288-152.614105 148.115386l0 270.243911 72.030477 0 0 259.646552c0 14.82873 12.031516 26.859741 26.860868 26.859741s26.860868-12.031011 26.860868-26.859741L239.904765 530.872836l177.972697 0L417.877462 260.628926zM213.044919 244.348124c14.829353 0 26.860868 12.013615 26.860868 26.859741l0 259.664971-53.72276 0L186.183028 271.207865C186.183028 256.361739 198.215567 244.348124 213.044919 244.348124z" p-id="4241" fill="#13227a"></path></svg>