<?xml version="1.0" standalone="no"?><!DOCTYPE svg PUBLIC "-//W3C//DTD SVG 1.1//EN" "http://www.w3.org/Graphics/SVG/1.1/DTD/svg11.dtd"><svg t="1594384462558" class="icon" viewBox="0 0 1097 1024" version="1.1" xmlns="http://www.w3.org/2000/svg" p-id="5028" xmlns:xlink="http://www.w3.org/1999/xlink" width="68.5625" height="64"><defs><style type="text/css"></style></defs><path d="M881.64285752 94.14285752h-675A79.71428584 79.71428584 0 0 0 126.28571416 174.5v511.07142832A80.35714248 80.35714248 0 0 0 206.64285752 769.14285752h138.21428496v115.71428496a44.03571416 44.03571416 0 0 0 45 45 57.21428584 57.21428584 0 0 0 32.14285752-12.85714248l147.85714248-147.85714248h308.5714292a79.71428584 79.71428584 0 0 0 80.35714248-80.35714336v-514.28571416A75.21428584 75.21428584 0 0 0 881.64285752 94.14285752z m-237.85714336 475.71428496H296.64285752a41.78571416 41.78571416 0 0 1 0-83.57142832h347.14285664a41.78571416 41.78571416 0 0 1 0 83.57142832z m147.85714336-192.85714248H296.64285752A40.5 40.5 0 0 1 254.85714248 335.21428584a42.42857168 42.42857168 0 0 1 41.78571504-41.78571416h495A42.42857168 42.42857168 0 0 1 833.42857168 335.21428584a40.5 40.5 0 0 1-41.78571416 41.78571416z" p-id="5029" fill="#1296db"></path></svg>