<?xml version="1.0" standalone="no"?><!DOCTYPE svg PUBLIC "-//W3C//DTD SVG 1.1//EN" "http://www.w3.org/Graphics/SVG/1.1/DTD/svg11.dtd"><svg t="1594022328485" class="icon" viewBox="0 0 1024 1024" version="1.1" xmlns="http://www.w3.org/2000/svg" p-id="4332" xmlns:xlink="http://www.w3.org/1999/xlink" width="200" height="200"><defs><style type="text/css"></style></defs><path d="M841.143 402.286v73.143q0 126.317-84.26 219.72T548.57 802.305v75.41h146.286q14.848 0 25.746 10.825t10.826 25.747-10.826 25.746-25.746 10.825H329.143q-14.848 0-25.746-10.825t-10.826-25.746 10.826-25.747 25.746-10.825h146.286v-75.41Q351.45 788.626 267.118 695.15t-84.26-219.721v-73.143q0-14.848 10.824-25.747t25.747-10.825 25.746 10.825T256 402.286v73.143q0 105.691 75.118 180.882T512 731.429t180.882-75.118T768 475.429v-73.143q0-14.848 10.825-25.747t25.746-10.825 25.747 10.825 10.825 25.747zM694.857 182.857V475.43q0 75.41-53.687 129.17T512 658.286t-129.17-53.687-53.687-129.17V182.857q0-75.41 53.687-129.17T512 0t129.17 53.687 53.687 129.17z" p-id="4333" fill="#13227a"></path></svg>