<?xml version="1.0" standalone="no"?><!DOCTYPE svg PUBLIC "-//W3C//DTD SVG 1.1//EN" "http://www.w3.org/Graphics/SVG/1.1/DTD/svg11.dtd"><svg t="1595643820538" class="icon" viewBox="0 0 1024 1024" version="1.1" xmlns="http://www.w3.org/2000/svg" p-id="5122" xmlns:xlink="http://www.w3.org/1999/xlink" width="200" height="200"><defs><style type="text/css"></style></defs><path d="M921.6 537.6v-51.2H537.6V409.6h150.4c14.08 0 25.6-11.52 25.6-25.6V128c0-14.08-11.52-25.6-25.6-25.6h-352c-14.08 0-25.6 11.52-25.6 25.6v256c0 14.08 11.52 25.6 25.6 25.6H486.4v76.8H102.4v51.2h160v76.8H128c-14.08 0-25.6 11.52-25.6 25.6v256c0 14.08 11.52 25.6 25.6 25.6h320c14.08 0 25.6-11.52 25.6-25.6v-256c0-14.08-11.52-25.6-25.6-25.6H313.6V537.6h396.8v76.8H576c-14.08 0-25.6 11.52-25.6 25.6v256c0 14.08 11.52 25.6 25.6 25.6h320c14.08 0 25.6-11.52 25.6-25.6v-256c0-14.08-11.52-25.6-25.6-25.6h-134.4V537.6h160zM361.6 153.6h300.8v204.8h-300.8V153.6zM422.4 870.4H153.6v-204.8h268.8v204.8z m448 0H601.6v-204.8h268.8v204.8z" p-id="5123" fill="#7CB444"></path></svg>