<?xml version="1.0" standalone="no"?><!DOCTYPE svg PUBLIC "-//W3C//DTD SVG 1.1//EN" "http://www.w3.org/Graphics/SVG/1.1/DTD/svg11.dtd"><svg t="1592616460732" class="icon" viewBox="0 0 2421 1024" version="1.1" xmlns="http://www.w3.org/2000/svg" p-id="3442" xmlns:xlink="http://www.w3.org/1999/xlink" width="472.8515625" height="200"><defs><style type="text/css"></style></defs><path d="M2234.181818 1024 186.181818 1024C83.362909 1024 0 940.637091 0 837.818182L0 186.181818C0 83.362909 83.362909 0 186.181818 0L2234.181818 0C2337.000727 0 2420.363636 83.362909 2420.363636 186.181818L2420.363636 837.818182C2420.363636 940.637091 2337.000727 1024 2234.181818 1024ZM650.914909 233.053091C650.914909 207.36 630.132364 186.554182 604.462545 186.554182 578.792727 186.554182 558.033455 207.36 558.033455 233.053091L558.033455 637.393455 271.639273 207.266909C260.282182 190.208 239.104 182.551273 219.531636 188.555636 199.936 194.490182 186.554182 212.573091 186.554182 233.053091L186.554182 790.946909C186.554182 816.64 207.336727 837.445818 232.983273 837.445818 258.653091 837.445818 279.435636 816.64 279.435636 790.946909L279.435636 386.606545 565.829818 816.733091C574.580364 829.905455 589.218909 837.445818 604.462545 837.445818 608.954182 837.445818 613.492364 836.794182 617.937455 835.444364 637.533091 829.486545 650.914909 811.426909 650.914909 790.946909L650.914909 233.053091ZM1256.727273 558.545455C1282.443636 558.545455 1303.272727 537.716364 1303.272727 512 1303.272727 486.283636 1282.443636 465.454545 1256.727273 465.454545L930.909091 465.454545 930.909091 279.272727 1256.727273 279.272727C1282.443636 279.272727 1303.272727 258.443636 1303.272727 232.727273 1303.272727 207.010909 1282.443636 186.181818 1256.727273 186.181818L884.363636 186.181818C858.670545 186.181818 837.818182 207.010909 837.818182 232.727273L837.818182 791.272727C837.818182 816.989091 858.670545 837.818182 884.363636 837.818182L1256.727273 837.818182C1282.443636 837.818182 1303.272727 816.989091 1303.272727 791.272727 1303.272727 765.556364 1282.443636 744.727273 1256.727273 744.727273L930.909091 744.727273 930.909091 558.545455 1256.727273 558.545455ZM2193.896727 186.112C2169.483636 178.013091 2143.720727 191.092364 2135.668364 215.109818L1995.194182 634.996364 1854.72 215.109818C1842.222545 177.664 1779.921455 177.664 1767.424 215.109818L1626.949818 634.996364 1486.475636 215.109818C1478.423273 191.092364 1452.497455 178.013091 1428.270545 186.112 1404.183273 194.094545 1391.127273 220.066909 1399.179636 244.130909L1583.313455 794.554182C1595.810909 832 1658.112 832 1670.609455 794.554182L1811.083636 374.667636 1951.557818 794.554182C1957.818182 813.265455 1975.389091 825.902545 1995.194182 825.902545 2015.022545 825.902545 2032.616727 813.265455 2038.853818 794.554182L2222.964364 244.130909C2231.016727 220.066909 2217.984 194.094545 2193.896727 186.112Z" p-id="3443" fill="#d4237a"></path></svg>