<?xml version="1.0" standalone="no"?><!DOCTYPE svg PUBLIC "-//W3C//DTD SVG 1.1//EN" "http://www.w3.org/Graphics/SVG/1.1/DTD/svg11.dtd"><svg t="1640161771962" class="icon" viewBox="0 0 1170 1024" version="1.1" xmlns="http://www.w3.org/2000/svg" p-id="1654" xmlns:xlink="http://www.w3.org/1999/xlink" width="36.5625" height="32"><defs><style type="text/css"></style></defs><path d="M1101.008167 267.242759a498.995642 498.995642 0 0 0-180.535502-174.148747 51.04528 51.04528 0 0 0-26.814617-8.434416 47.778772 47.778772 0 0 0-47.827526 47.63251c0 17.551386 11.115878 34.468971 28.277233 43.390925 123.834776 70.059281 200.817103 199.305734 200.817103 337.132865 0 137.973392-77.128589 267.171091-201.109627 337.132864a47.242479 47.242479 0 0 0-27.399663 42.805879 47.827526 47.827526 0 0 0 75.227189 39.246848 498.45935 498.45935 0 0 0 179.950456-173.904978A469.548317 469.548317 0 0 0 1170.09237 513.352188a474.911241 474.911241 0 0 0-69.035449-246.109429z" p-id="1655" fill="#d4237a"></path><path d="M926.956927 660.150027a284.819985 284.819985 0 0 0-1.316354-298.129786 298.129785 298.129785 0 0 0-111.500052-104.869528l-0.487539-0.24377-0.438785-0.146261a62.014896 62.014896 0 0 0-23.109324-5.606693 48.363818 48.363818 0 0 0-48.510079 48.217557c0 16.868832 9.409493 33.152617 24.133155 41.538279l0.243769 0.146261c65.183896 34.615233 105.552083 100.140405 105.552083 171.12601 0 69.913019-39.149341 134.65813-102.09056 169.078347a46.023633 46.023633 0 0 0-18.038924 17.307616c-4.387846 7.410585-6.825539 16.040016-6.9718 24.815709 0 26.668355 21.695463 48.26631 48.558833 48.266311 8.970708-0.536292 17.795155-2.973985 25.83954-7.21557l0.195015-0.097508a298.178539 298.178539 0 0 0 107.941022-104.186974zM604.74274 4.459515l-0.292523-0.146262-0.292523-0.048754A57.042003 57.042003 0 0 0 546.043106 13.1377l-0.487538 0.39003-0.097508 0.146262a4184.445332 4184.445332 0 0 1-113.742729 93.266113C336.547818 182.069786 303.785232 198.59734 295.7896 201.912602H47.827526A47.876279 47.876279 0 0 0 0 249.691374v524.250136c0 26.278324 21.451693 47.63251 47.778772 47.63251h220.611165c8.531924 3.364016 44.170987 19.940324 151.916993 96.483867a4508.755934 4508.755934 0 0 1 127.393807 93.899912c9.458247 7.800616 21.597955 12.042201 34.127694 12.042201 8.190647 0 16.235032-1.755139 23.743125-5.167908a51.67908 51.67908 0 0 0 23.06057-19.696555 57.042003 57.042003 0 0 0 8.970708-30.129878l0.585046-914.085911c0-21.890478-12.871016-41.197002-33.44514-50.362726zM541.704014 882.516331c-17.941416-13.163539-36.077848-26.132063-54.263034-38.856818-154.500947-109.111114-190.383779-118.081822-216.223319-118.081821H102.236821a23.596863 23.596863 0 0 1-6.338-0.682554 35.054017 35.054017 0 0 1 0.341276-7.361831l0.146262-0.975077V313.120131c0-10.872108 1.316354-12.822262 1.316354-12.822262 0.146262-0.146262 2.096415-1.852646 13.797339-1.852646h190.14001c26.132063 0 61.576111-9.263231 203.498565-120.129484 12.432231-9.653262 24.864463-19.50154 37.150433-29.447324L541.704014 882.516331z" p-id="1656" fill="#d4237a"></path></svg>