<?xml version="1.0" standalone="no"?><!DOCTYPE svg PUBLIC "-//W3C//DTD SVG 1.1//EN" "http://www.w3.org/Graphics/SVG/1.1/DTD/svg11.dtd"><svg t="1593594463288" class="icon" viewBox="0 0 1024 1024" version="1.1" xmlns="http://www.w3.org/2000/svg" p-id="4002" xmlns:xlink="http://www.w3.org/1999/xlink" width="200" height="200"><defs><style type="text/css"></style></defs><path d="M993.267878 1013.304366H30.660817a20.036488 20.036488 0 0 1-20.036487-20.036488v-641.73804a20.036488 20.036488 0 0 1 20.036487-20.036488h962.607061a20.036488 20.036488 0 0 1 20.036488 20.036488v641.73804a20.036488 20.036488 0 0 1-20.036488 20.036488zM50.839914 973.231391h922.320172V371.63763H50.768609z" p-id="4003" fill="#d4237a"></path><path d="M191.166632 491.999164h521.376506v40.072976H191.166632z" p-id="4004" fill="#d4237a"></path><path d="M191.166632 652.36237h280.72474v40.072976H191.166632z" p-id="4005" fill="#d4237a"></path><path d="M191.166632 812.79688h401.014971v40.072976H191.166632z" p-id="4006" fill="#d4237a"></path><path d="M512.178261 211.274424a100.253743 100.253743 0 1 1 100.253742-100.253743 100.396351 100.396351 0 0 1-100.253742 100.253743z m0-160.43451a60.180767 60.180767 0 1 0 60.180767 60.180767 60.252072 60.252072 0 0 0-60.180767-60.180767z" p-id="4007" fill="#d4237a"></path><path d="M672.470162 371.63763h-320.86902a20.036488 20.036488 0 0 1-16.685189-31.231252l106.95634-160.43451 33.370378 22.246919-86.135506 129.274563h245.928278L548.899937 202.218787l33.370378-22.246919 106.956341 160.43451a20.036488 20.036488 0 0 1-16.68519 31.231252z" p-id="4008" fill="#d4237a"></path></svg>