<?xml version="1.0" standalone="no"?><!DOCTYPE svg PUBLIC "-//W3C//DTD SVG 1.1//EN" "http://www.w3.org/Graphics/SVG/1.1/DTD/svg11.dtd"><svg t="1592874916622" class="icon" viewBox="0 0 1024 1024" version="1.1" xmlns="http://www.w3.org/2000/svg" p-id="4213" xmlns:xlink="http://www.w3.org/1999/xlink" width="32" height="32"><defs><style type="text/css"></style></defs><path d="M633.347 139.26C768.501 180.43 866.835 306.08 866.835 454.7v205.042l65.784 171.77c9.028 23.572-8.377 48.875-33.619 48.875H729.153c-1.269 0.135-2.558 0.205-3.863 0.205h-72.565C640.655 945.839 582.029 995 512 995s-128.655-49.161-140.725-114.408h-42.33c-1.306 0-2.595-0.07-3.864-0.205H125c-25.242 0-42.647-25.303-33.619-48.875l65.784-171.77V454.7c0-148.543 98.233-274.142 233.28-315.378a37.393 37.393 0 0 1 2.017-8.713C397.6 68.674 449.464 20 512.7 20c66.152 0 119.858 53.266 120.647 119.26zM412.012 808.591h199.976a37.527 37.527 0 0 1 3.93-0.205h230.745l-49.447-129.112a36 36 0 0 1-2.38-12.875V454.7c0-142.324-115.377-257.7-257.7-257.7h-50.271c-142.324 0-257.7 115.376-257.7 257.7v211.7a36 36 0 0 1-2.381 12.875l-49.447 129.112h230.745c1.335 0 2.646 0.07 3.93 0.205z m34.023 72C456.448 905.329 481.908 923 512 923c30.092 0 55.552-17.671 65.965-42.408h-131.93zM512.7 92c-19.928 0-37.064 12.001-44.585 29.187 10.004 1.422 21.935 2.494 34.302 3.003 20.889 0.86 40.809 0.045 55.159-2.324C550.213 104.318 532.889 92 512.7 92z" p-id="4214" fill="#13227a"></path></svg>