<?xml version="1.0" standalone="no"?><!DOCTYPE svg PUBLIC "-//W3C//DTD SVG 1.1//EN" "http://www.w3.org/Graphics/SVG/1.1/DTD/svg11.dtd"><svg t="1592374029603" class="icon" viewBox="0 0 1024 1024" version="1.1" xmlns="http://www.w3.org/2000/svg" p-id="8290" xmlns:xlink="http://www.w3.org/1999/xlink" width="200" height="200"><defs><style type="text/css"></style></defs><path d="M768.339 959.194l9.731-22.654-32.51-53.634c0.093-0.063 0.187-0.063 0.248-0.127l25.127-23.843c6.946-6.635 6.946-17.274 0-23.908h-75.382c-6.916 6.633-6.916 17.272 0 23.908l25.127 23.843c0.126 0.127 0.313 0.063 0.439 0.188l-31.886 53.572 14.769 22.654c-108.425-5.946-192.003-40.742-192.003-83.235 0-61.644 59.329-78.292 142.783-82.735 12.016-17.742 23.029-41.681 16.959-63.458-23.187-18.776-40.366-47.314-49.379-80.545-1.564 0.44-3.129 0.94-4.881 0.94-9.826 0-17.773-7.573-17.773-16.898v-33.731c0-9.075 7.571-16.334 16.99-16.772 7.136-76.602 58.61-136.243 121.817-136.243 63.46 0 115.09 60.142 121.911 137.212 1.816-0.594 3.725-1.095 5.758-1.095 9.826 0 17.773 7.573 17.773 16.897v33.731c0 9.325-7.947 16.898-17.773 16.898-3.879 0-7.322-1.441-10.232-3.474-10.295 40.461-33.576 73.597-63.803 91.966-1.565 19.088 8.291 38.8 18.9 54.101 86.928 3.444 149.542 18.274 149.542 83.205 0.001 42.495-83.704 77.351-192.254 83.237z m-32.042-656.868c0 8.824-7.164 16.022-16.023 16.022-8.855 0-16.022-7.197-16.022-16.022a15.992 15.992 0 0 1 16.022-16.022 15.994 15.994 0 0 1 16.023 16.022z m-96.128-64.084c0 8.825-7.164 16.022-16.022 16.022-8.854 0-16.021-7.196-16.021-16.022 0-8.855 7.165-16.022 16.021-16.022 8.857 0 16.022 7.165 16.022 16.022zM239.64 414.474c-8.855 0-16.021-7.196-16.021-16.022a15.992 15.992 0 0 1 16.021-16.022 15.993 15.993 0 0 1 16.022 16.022c0 8.825-7.164 16.022-16.022 16.022z m0 224.296c-8.855 0-16.021-7.196-16.021-16.021a15.991 15.991 0 0 1 16.021-16.022 15.992 15.992 0 0 1 16.022 16.022c0 8.824-7.164 16.021-16.022 16.021z m64.086-320.424c-8.855 0-16.022-7.197-16.022-16.022a15.992 15.992 0 0 1 16.022-16.022 15.992 15.992 0 0 1 16.021 16.022c0 8.825-7.164 16.022-16.021 16.022z m0 416.551c-8.855 0-16.022-7.196-16.022-16.022a15.993 15.993 0 0 1 16.022-16.023 15.992 15.992 0 0 1 16.021 16.023c0 8.825-7.164 16.022-16.021 16.022z m112.147 48.063c0 8.825-7.165 16.023-16.022 16.023-8.855 0-16.022-7.197-16.022-16.023a15.991 15.991 0 0 1 16.022-16.021 15.992 15.992 0 0 1 16.022 16.021zM383.83 238.242c0-8.855 7.165-16.022 16.022-16.022s16.022 7.165 16.022 16.022c0 8.825-7.165 16.022-16.022 16.022-8.855 0-16.022-7.197-16.022-16.022z m144.192 80.104h32.042a15.992 15.992 0 0 1 16.022 16.022v192.254c0 8.825-7.164 16.022-16.022 16.022H335.769c-8.855 0-16.022-7.196-16.022-16.022V494.58a15.991 15.991 0 0 1 16.022-16.021h176.232v-144.19a15.992 15.992 0 0 1 16.022-16.022z m352.464 32.043c-16.177 0-29.819-8.543-38.517-20.809l-2.254 1.127c-62.519-99.289-171.038-166.127-295.672-171.539v63.052h-32.042v-63.271c-190.657 8.198-343.422 160.962-351.682 351.653h63.302v32.042h-62.864c6.445 147.819 99.194 273.048 229.773 325.68l-0.282 1.001c15.052 8.137 25.627 23.531 25.627 41.805 0 26.534-21.497 48.064-48.064 48.064l-0.72 2.817c-4.756-1.752-9.325-3.88-14.018-5.821-2.535-0.814-4.882-1.751-7.229-3.004C179.969 882.344 63.408 718.377 63.408 526.623c0-256.62 207.993-464.615 464.614-464.615 159.617 0 299.301 81.294 382.913 203.894 6.635 5.602 11.641 12.641 14.52 21.027 0.127 0.249 0.314 0.439 0.439 0.689l-0.281 0.125c1.502 4.693 2.941 9.387 2.941 14.582 0 26.535-21.496 48.064-48.064 48.064z" p-id="8291" fill="#1afa29"></path></svg>