<?xml version="1.0" standalone="no"?><!DOCTYPE svg PUBLIC "-//W3C//DTD SVG 1.1//EN" "http://www.w3.org/Graphics/SVG/1.1/DTD/svg11.dtd"><svg t="1594384467741" class="icon" viewBox="0 0 1024 1024" version="1.1" xmlns="http://www.w3.org/2000/svg" p-id="5208" xmlns:xlink="http://www.w3.org/1999/xlink" width="64" height="64"><defs><style type="text/css"></style></defs><path d="M512 965.485714A453.485714 453.485714 0 1 0 58.514286 512 454.217143 454.217143 0 0 0 512 965.485714z m29.257143-234.057143h87.771428a29.257143 29.257143 0 0 0 0-58.514285H541.257143v-43.885715h87.771428a29.257143 29.257143 0 1 0 0-58.514285H541.257143V512a146.285714 146.285714 0 1 0-58.514286 0v263.314286a29.257143 29.257143 0 1 0 58.514286 0zM512 1024a512 512 0 1 1 512-512 512 512 0 0 1-512 512z m0-570.514286A87.771429 87.771429 0 1 1 599.771429 365.714286 87.771429 87.771429 0 0 1 512 453.485714z" p-id="5209" fill="#d4237a"></path></svg>