<?xml version="1.0" standalone="no"?><!DOCTYPE svg PUBLIC "-//W3C//DTD SVG 1.1//EN" "http://www.w3.org/Graphics/SVG/1.1/DTD/svg11.dtd"><svg t="1593347095816" class="icon" viewBox="0 0 1024 1024" version="1.1" xmlns="http://www.w3.org/2000/svg" p-id="4781" xmlns:xlink="http://www.w3.org/1999/xlink" width="32" height="32"><defs><style type="text/css"></style></defs><path d="M512 512m-512 0a512 512 0 1 0 1024 0 512 512 0 1 0-1024 0Z" fill="#1296db" p-id="4782"></path><path d="M530.624 575.488l16.896 145.6 75.776 95.68-23.872 23.616-94.08-90.176-46.272-88.768-35.136 88.768-36.48 95.68h-30.912l39.36-266.24V511.68l-63.168 55.488-21.12-16.64 82.88-98.496v-8.32c0-43.008 7.04-65.152 16.832-81.856 18.24-27.712 51.968-27.712 51.968-27.712s49.088-5.568 72.96 37.44c29.44 52.736 77.248 176.128 77.248 176.128l-25.28 11.136-59.008-98.496 1.408 115.136z m-72.96-56.896l15.424-19.392-5.632-126.208H449.28l-5.632 123.392 14.08 22.208zM400.64 256A55.68 55.68 0 1 1 512 256a55.68 55.68 0 0 1-111.36 0z m201.536 478.592l-45.696-132.544 151.936-66.304 2.688-1.472 45.696 131.072-154.624 69.248z" fill="#ffffff" p-id="4783"></path></svg>