<?xml version="1.0" standalone="no"?><!DOCTYPE svg PUBLIC "-//W3C//DTD SVG 1.1//EN" "http://www.w3.org/Graphics/SVG/1.1/DTD/svg11.dtd"><svg t="1586738143423" class="icon" viewBox="0 0 1024 1024" version="1.1" xmlns="http://www.w3.org/2000/svg" p-id="5834" width="200" height="200"><path d="M0 0v243.712h49.152v50.176h925.696v-50.176h49.152V0H0z m173.056 151.552h-61.44V91.136h61.44v60.416z m102.4 0h-61.44V91.136h61.44v60.416z m102.4 0h-61.44V91.136h61.44v60.416z m433.152 0H568.32V91.136h241.664v60.416z m102.4 0h-61.44V91.136h61.44v60.416zM0 365.568v243.712h49.152v50.176h925.696v-50.176h49.152V365.568H0z m173.056 151.552h-61.44v-60.416h61.44v60.416z m102.4 0h-61.44v-60.416h61.44v60.416z m102.4 0h-61.44v-60.416h61.44v60.416z m433.152 0H568.32v-60.416h241.664v60.416z m102.4 0h-61.44v-60.416h61.44v60.416zM0 730.112v243.712h49.152v50.176h925.696v-50.176h49.152V730.112H0z m173.056 152.576h-61.44v-60.416h61.44v60.416z m102.4 0h-61.44v-60.416h61.44v60.416z m102.4 0h-61.44v-60.416h61.44v60.416z m433.152 0H568.32v-60.416h241.664v60.416z m102.4 0h-61.44v-60.416h61.44v60.416z" p-id="5835" fill="#1afa29"></path></svg>