<?xml version="1.0" standalone="no"?><!DOCTYPE svg PUBLIC "-//W3C//DTD SVG 1.1//EN" "http://www.w3.org/Graphics/SVG/1.1/DTD/svg11.dtd"><svg t="1593342224233" class="icon" viewBox="0 0 1024 1024" version="1.1" xmlns="http://www.w3.org/2000/svg" p-id="3880" xmlns:xlink="http://www.w3.org/1999/xlink" width="32" height="32"><defs><style type="text/css"></style></defs><path d="M859.852 64.067h-696.37C108.595 64.067 64 108.721 64 163.555v696.42c0 54.906 44.595 99.488 99.48 99.488h696.371c54.903 0 99.482-44.581 99.481-99.49V163.554c0-54.832-44.578-99.487-99.48-99.487zM781.54 332.931C760.019 462.445 647.234 561.51 511.667 561.51c-135.531 0-248.226-99.038-269.752-228.525-16.938-7.948-28.693-25.121-28.693-45.013 0-27.5 22.261-49.745 49.741-49.745 27.5 0 49.741 22.244 49.741 49.745 0 16.744-8.328 31.566-21.06 40.587 19.15 104.08 110.463 183.207 220.023 183.207 109.554 0 200.927-79.093 220.12-183.14-12.784-9.015-21.157-23.869-21.157-40.654 0-27.5 22.262-49.745 49.74-49.745 27.499 0 49.742 22.244 49.742 49.745 0 19.847-11.695 36.987-28.573 44.959z" p-id="3881" fill="#13227a"></path></svg>