<?xml version="1.0" standalone="no"?><!DOCTYPE svg PUBLIC "-//W3C//DTD SVG 1.1//EN" "http://www.w3.org/Graphics/SVG/1.1/DTD/svg11.dtd"><svg t="1595643827657" class="icon" viewBox="0 0 1024 1024" version="1.1" xmlns="http://www.w3.org/2000/svg" p-id="5302" xmlns:xlink="http://www.w3.org/1999/xlink" width="200" height="200"><defs><style type="text/css"></style></defs><path d="M927.58 150.89a72 72 0 0 0-72-72H168.42a72 72 0 0 0-72 72v222a71.65 71.65 0 0 0 9.72 36.11 71.65 71.65 0 0 0-9.72 36.11v428a72 72 0 0 0 72 72h687.16a72 72 0 0 0 72-72v-428a71.65 71.65 0 0 0-9.72-36.11 71.65 71.65 0 0 0 9.72-36.11z m-759.16 0h687.16v222H168.42z m687.16 722.22H168.42v-428h687.16z" p-id="5303" fill="#7CB444"></path><path d="M295.33 498.24a36 36 0 0 0-36 36V784a36 36 0 0 0 72 0V534.24a36 36 0 0 0-36-36zM512 498.24a36 36 0 0 0-36 36V784a36 36 0 0 0 72 0V534.24a36 36 0 0 0-36-36zM728.67 498.24a36 36 0 0 0-36 36V784a36 36 0 0 0 72 0V534.24a36 36 0 0 0-36-36z" p-id="5304" fill="#7CB444"></path><path d="M264.92 261.89m-36 0a36 36 0 1 0 72 0 36 36 0 1 0-72 0Z" p-id="5305" fill="#7CB444"></path><path d="M405.27 261.89m-36 0a36 36 0 1 0 72 0 36 36 0 1 0-72 0Z" p-id="5306" fill="#7CB444"></path><path d="M548.11 297.89h227.54a36 36 0 0 0 0-72H548.11a36 36 0 0 0 0 72z" p-id="5307" fill="#7CB444"></path></svg>