<?xml version="1.0" standalone="no"?><!DOCTYPE svg PUBLIC "-//W3C//DTD SVG 1.1//EN" "http://www.w3.org/Graphics/SVG/1.1/DTD/svg11.dtd"><svg t="1595643849261" class="icon" viewBox="0 0 1126 1024" version="1.1" xmlns="http://www.w3.org/2000/svg" p-id="5486" xmlns:xlink="http://www.w3.org/1999/xlink" width="219.921875" height="200"><defs><style type="text/css"></style></defs><path d="M1125.631437 971.647514A52.787174 52.787174 0 0 1 1072.639464 1023.999488H52.735974A52.531174 52.531174 0 0 1 0 971.673114V563.199718c0-4.351998 171.519914-490.598155 179.19991-511.999744C192.255904 14.310393 207.615896 0 230.399885 0h665.599667a73.625563 73.625563 0 0 1 57.855971 36.070382L1126.399437 563.199718zM895.999552 51.199974H230.399885L51.199974 563.199718h1023.999488z m179.19991 563.199719H51.199974v358.399821h1023.999488V614.399693z m-371.199814 76.799961a35.839982 35.839982 0 0 1 38.655981 32.025584v63.999968a39.34718 39.34718 0 0 1-77.311962 0v-63.999968A35.839982 35.839982 0 0 1 703.999648 691.199654z m127.999936 0a35.839982 35.839982 0 0 1 38.655981 32.025584v63.999968a39.34718 39.34718 0 0 1-77.311962 0v-63.999968A35.839982 35.839982 0 0 1 831.999584 691.199654z m127.999936 0a35.839982 35.839982 0 0 1 38.655981 32.025584v63.999968a39.34718 39.34718 0 0 1-77.311962 0v-63.999968A35.839982 35.839982 0 0 1 959.99952 691.199654zM226.303887 382.207809h113.407943a56.652772 56.652772 0 0 0 23.295988-3.737598 28.518386 28.518386 0 0 0 14.079993-15.743992 23.039988 23.039988 0 0 0 2.559999-10.982395 1.587199 1.587199 0 0 0-0.256-1.151999 24.575988 24.575988 0 0 0-16.127992-3.148799H312.319844c-38.655981 0-57.855971-13.235193-57.855971-39.73118a92.159954 92.159954 0 0 1 7.679996-33.510383 105.113547 105.113547 0 0 1 105.727947-69.529565h125.183937l-22.015989 53.427173h-111.871944a38.399981 38.399981 0 0 0-39.42398 24.166388 15.052792 15.052792 0 0 0-1.791999 6.476797c0 4.377598 4.351998 6.553597 13.311993 6.553596h57.087972a76.006362 76.006362 0 0 1 45.567977 10.009595 31.513584 31.513584 0 0 1 11.007995 25.958387 96.921552 96.921552 0 0 1-8.447996 35.455983 110.079945 110.079945 0 0 1-40.95998 52.761573 117.759941 117.759941 0 0 1-64.255968 16.179192H204.543898zM622.079689 204.671898l-94.975953 230.988684H465.919767l94.975953-230.988684h61.183969z m172.031914 0q76.031962 0 76.031962 44.108778a99.43035 99.43035 0 0 1-8.959996 36.863981 115.199942 115.199942 0 0 1-45.823977 56.524772 126.540737 126.540737 0 0 1-68.607965 18.227191h-5.375998a23.628788 23.628788 0 0 1-3.583998-0.3072h-47.359976l-30.975985 75.571162h-59.13597l94.719952-230.988684h99.071951z m-40.44798 102.067149a45.286377 45.286377 0 0 0 46.591977-27.263987 23.039988 23.039988 0 0 0 2.559999-15.641592 8.089596 8.089596 0 0 0-0.512-0.6912 40.95998 40.95998 0 0 0-24.575988-4.735997h-45.311977l-19.96799 48.332776h41.215979z" p-id="5487" fill="#7CB444"></path></svg>