<?xml version="1.0" standalone="no"?><!DOCTYPE svg PUBLIC "-//W3C//DTD SVG 1.1//EN" "http://www.w3.org/Graphics/SVG/1.1/DTD/svg11.dtd"><svg t="1653615722550" class="icon" viewBox="0 0 1024 1024" version="1.1" xmlns="http://www.w3.org/2000/svg" p-id="6443" xmlns:xlink="http://www.w3.org/1999/xlink" width="256" height="256"><defs><style type="text/css">@font-face { font-family: feedback-iconfont; src: url("//at.alicdn.com/t/font_1031158_u69w8yhxdu.woff2?t=1630033759944") format("woff2"), url("//at.alicdn.com/t/font_1031158_u69w8yhxdu.woff?t=1630033759944") format("woff"), url("//at.alicdn.com/t/font_1031158_u69w8yhxdu.ttf?t=1630033759944") format("truetype"); }
</style></defs><path d="M511.091 960.558c-60.438 0-119.086-11.844-174.313-35.203-53.328-22.556-101.213-54.839-142.329-95.954-41.115-41.114-73.398-89.001-95.954-142.328-23.359-55.228-35.204-113.875-35.204-174.314 0-60.438 11.844-119.086 35.204-174.313 22.555-53.328 54.839-101.213 95.954-142.329 41.115-41.115 89.001-73.398 142.329-95.954 55.228-23.359 113.875-35.204 174.313-35.204 60.439 0 119.086 11.844 174.314 35.204 53.327 22.555 101.214 54.839 142.328 95.954 41.115 41.115 73.398 89.001 95.954 142.329 23.359 55.228 35.203 113.875 35.203 174.313 0 60.439-11.844 119.086-35.203 174.314-22.556 53.327-54.839 101.214-95.954 142.328-41.114 41.115-89.001 73.398-142.328 95.954-55.227 23.359-113.875 35.203-174.314 35.203z m0-831.599c-211.627 0-383.799 172.172-383.799 383.799s172.172 383.799 383.799 383.799S894.89 724.385 894.89 512.758 722.719 128.959 511.091 128.959z" fill="#13227a" p-id="6444"></path><path d="M383.908 319.996v383.887l315.949-193.775z" fill="#13227a" p-id="6445"></path></svg>