<?xml version="1.0" standalone="no"?><!DOCTYPE svg PUBLIC "-//W3C//DTD SVG 1.1//EN" "http://www.w3.org/Graphics/SVG/1.1/DTD/svg11.dtd"><svg t="1594384471901" class="icon" viewBox="0 0 1024 1024" version="1.1" xmlns="http://www.w3.org/2000/svg" p-id="5388" xmlns:xlink="http://www.w3.org/1999/xlink" width="64" height="64"><defs><style type="text/css"></style></defs><path d="M1021.667556 387.470222a48.298667 48.298667 0 0 0-38.513778-33.962666l-295.992889-44.942223L554.780444 27.761778A47.559111 47.559111 0 0 0 512 0c-18.147556 0-34.702222 10.808889-42.780444 27.875556L336.839111 308.451556l-295.992889 44.999111a48.355556 48.355556 0 0 0-38.513778 33.962666 51.541333 51.541333 0 0 0 12.060445 51.2l214.243555 218.453334-50.631111 308.451555a51.086222 51.086222 0 0 0 19.000889 48.924445c14.734222 11.150222 34.133333 12.629333 50.289778 3.754666l264.760889-145.635555 264.704 145.635555a46.136889 46.136889 0 0 0 50.232889-3.811555 51.086222 51.086222 0 0 0 19.000889-48.867556l-50.574223-308.451555 214.186667-218.453334a51.598222 51.598222 0 0 0 12.060445-51.2z" p-id="5389" fill="#d4237a"></path></svg>