<?xml version="1.0" standalone="no"?><!DOCTYPE svg PUBLIC "-//W3C//DTD SVG 1.1//EN" "http://www.w3.org/Graphics/SVG/1.1/DTD/svg11.dtd"><svg t="1594384494199" class="icon" viewBox="0 0 1024 1024" version="1.1" xmlns="http://www.w3.org/2000/svg" p-id="6291" xmlns:xlink="http://www.w3.org/1999/xlink" width="64" height="64"><defs><style type="text/css"></style></defs><path d="M557.056 139.904 314.624 284.032l0 458.752L557.056 887.04c45.824 26.24 85.248 6.528 85.248-45.824l0-655.36C642.304 133.376 603.008 107.136 557.056 139.904L557.056 139.904zM52.48 382.336l0 262.144c0 52.48 45.824 98.304 98.304 98.304l98.304 0L249.088 284.032l-98.304 0C98.304 284.032 52.48 329.984 52.48 382.336L52.48 382.336zM937.216 480.64 806.144 480.64c-19.712 0-32.768 13.056-32.768 32.768 0 19.712 13.056 32.768 32.768 32.768l131.072 0c19.712 0 32.768-13.056 32.768-32.768C969.984 493.824 956.928 480.64 937.216 480.64L937.216 480.64zM917.504 814.976l-111.36-65.536c-13.056-6.528-32.768-6.528-45.824 13.056-6.528 13.056-6.528 32.768 13.056 45.824l111.36 65.536c13.056 6.528 32.768 6.528 45.824-13.056C937.216 847.744 930.688 821.504 917.504 814.976L917.504 814.976zM799.616 277.504l111.36-65.536c13.056-6.528 19.712-26.24 13.056-45.824-6.528-13.056-26.24-19.712-39.296-13.056l-111.36 65.536c-13.056 6.528-19.712 26.24-13.056 45.824C766.848 277.504 786.432 284.032 799.616 277.504L799.616 277.504z" p-id="6292" fill="#d4237a"></path></svg>