<?xml version="1.0" standalone="no"?><!DOCTYPE svg PUBLIC "-//W3C//DTD SVG 1.1//EN" "http://www.w3.org/Graphics/SVG/1.1/DTD/svg11.dtd"><svg t="1594384489969" class="icon" viewBox="0 0 1024 1024" version="1.1" xmlns="http://www.w3.org/2000/svg" p-id="6111" xmlns:xlink="http://www.w3.org/1999/xlink" width="64" height="64"><defs><style type="text/css"></style></defs><path d="M 965.006 741.717 c 0 19.9111 -5.57511 38.3431 -14.5636 54.6133 l -286.72 -320.853 l 283.591 -248.092 c 11.0364 17.5218 17.6924 38.1156 17.6924 60.3022 v 454.03 Z M 510.976 533.788 l 394.638 -345.316 a 112.014 112.014 0 0 0 -54.1013 -14.2791 H 170.382 c -19.6836 0 -37.9449 5.40444 -54.0444 14.2791 l 394.638 345.316 Z m 109.966 -20.9351 L 529.636 592.839 a 28.3876 28.3876 0 0 1 -37.376 0 L 400.896 512.853 l -290.361 324.949 c 17.408 10.8658 37.8311 17.408 59.8471 17.408 h 681.131 c 22.016 0 42.4391 -6.54222 59.8471 -17.408 l -290.418 -324.949 Z M 74.5813 227.385 c -11.0364 17.5218 -17.6924 38.1156 -17.6924 60.3022 v 454.03 c 0 19.9111 5.57511 38.3431 14.5636 54.6133 l 286.72 -320.853 L 74.5244 227.385 Z" fill="#d4237a" p-id="6112"></path></svg>