<?xml version="1.0" standalone="no"?><!DOCTYPE svg PUBLIC "-//W3C//DTD SVG 1.1//EN" "http://www.w3.org/Graphics/SVG/1.1/DTD/svg11.dtd"><svg t="1582936013078" class="icon" viewBox="0 0 1024 1024" version="1.1" xmlns="http://www.w3.org/2000/svg" p-id="4331" xmlns:xlink="http://www.w3.org/1999/xlink" width="200" height="200"><defs><style type="text/css"></style></defs><path d="M815.082 774.213c33.547 0 64.229-15.557 85.903-39.64v-0.385c22.012-24.252 36.172-58.353 36.172-95.537 0-33.45-10.909-64.084-28.875-87.3-18.038-23.697-44.12-40.892-73.404-46.576-18.448-3.347-31.717-21.65-31.717-41.519 0-80.677-29.574-153.431-77.499-206.365-47.683-52.38-113.887-85.422-186.376-85.422-53.994 0-104.134 17.46-145.508 47.829-43.109 30.946-77.427 76.15-97.608 128.987-6.55 15.63-20.181 24.998-34.342 25.263-47.467 3.637-89.901 26.756-120.486 62.519-29.911 35.883-49.033 84.242-49.033 137.778 0 55.366 20.182 105.338 52.862 141.341 33.258 36.679 78.51 58.98 128.674 58.98h126.483c21.265 0 38.653 18.712 38.653 42.144 0 23.457-17.388 42.073-38.653 42.073H273.845c-71.453 0-136.332-31.573-182.571-82.966v-0.313c-46.962-51.392-75.789-122.677-75.789-201.26 0-75.812 26.684-144.568 70.322-195.817 38.677-44.745 90.985-76.366 149.337-86.288 27.214-57.75 67.528-107.048 116.32-142.86 54.283-38.748 118.367-62.181 187.822-62.181 93.73 0 179.296 42.024 240.972 110.733 54.644 60.351 91.563 142.522 98.571 232.784a202.56 202.56 0 0 1 88.047 66.781c29.092 38.533 46.576 87.854 46.576 141.68 0 60.4-22.036 115.741-57.799 156.08h-0.53c-31.62 34.318-74.102 57.702-121.016 62.808-2.625 0.867-5.635 0.867-8.645 0.867h-183.68c-21.313 0-38.147-18.616-38.147-42.073 0-23.432 16.834-42.145 38.147-42.145h173.3z m-316.64-365.095l-0.555 0.602-183.703 202.753c-9.2 10.163-9.2 26.443 0 36.076 8.694 10.26 23.457 10.26 32.68 0l144.449-159.765v379.978c0 13.8 10.693 25.335 23.216 25.335 12.764 0 23.143-11.535 23.143-25.335V488.76l144.979 159.765c9.007 10.26 23.384 10.26 32.174 0 9.32-9.633 9.32-25.913 0-36.076L530.64 409.094l-0.53-0.867-0.554-0.337-0.915-0.626-0.506-0.24c-0.818-0.94-1.806-1.542-2.456-2.216l-1.06-0.53-0.53-0.602c-1.06 0-2.167-0.578-3.323-0.578h-0.337l-1.83-0.867-2.288-0.313h-3.805l-2.095 0.313-1.975 0.867h-0.29c-1.035 0-2.07 0.578-3.226 0.578l-0.554 0.602-0.53 0.53c-1.614 0.674-1.879 1.276-2.721 2.215l-0.602 0.241-0.506 0.626-0.53 0.337-1.036 0.891z m15.533-7.2h1.06-1.06z" fill="#13227a" p-id="4332"></path></svg>