<?xml version="1.0" standalone="no"?><!DOCTYPE svg PUBLIC "-//W3C//DTD SVG 1.1//EN" "http://www.w3.org/Graphics/SVG/1.1/DTD/svg11.dtd"><svg t="1594384476171" class="icon" viewBox="0 0 1033 1024" version="1.1" xmlns="http://www.w3.org/2000/svg" p-id="5568" xmlns:xlink="http://www.w3.org/1999/xlink" width="64.5625" height="64"><defs><style type="text/css"></style></defs><path d="M454.00354 724.955752a59.80885 58.902655 0 1 0 119.617699 0 59.80885 58.902655 0 1 0-119.617699 0Z" p-id="5569" fill="#d4237a"></path><path d="M516.530973 3.624779C234.704425 3.624779 5.437168 231.985841 5.437168 513.812389S234.704425 1024 516.530973 1024s511.093805-228.361062 511.093806-510.187611S798.357522 3.624779 516.530973 3.624779z m0 976.877876c-258.265487 0-467.59646-209.330973-467.59646-466.690266C48.934513 255.546903 258.265487 47.122124 516.530973 47.122124s467.59646 209.330973 467.596461 466.690265-209.330973 466.690265-467.596461 466.690266z" p-id="5570" fill="#d4237a"></path><path d="M513.812389 243.766372c-2.718584 0-6.343363 0-9.061947 0.906194-37.153982 5.437168-62.527434 38.966372-57.090265 76.120354l38.060177 271.858407c1.812389 14.499115 14.499115 24.467257 28.092035 24.467257 14.499115 0 26.279646-10.874336 28.092036-24.467257l38.060177-271.858407c0-2.718584 0.906195-6.343363 0.906194-9.061947 0-38.060177-29.904425-67.964602-67.058407-67.964601z" p-id="5571" fill="#d4237a"></path></svg>