<?xml version="1.0" standalone="no"?><!DOCTYPE svg PUBLIC "-//W3C//DTD SVG 1.1//EN" "http://www.w3.org/Graphics/SVG/1.1/DTD/svg11.dtd"><svg t="1595643729360" class="icon" viewBox="0 0 1024 1024" version="1.1" xmlns="http://www.w3.org/2000/svg" p-id="4895" xmlns:xlink="http://www.w3.org/1999/xlink" width="200" height="200"><defs><style type="text/css"></style></defs><path d="M710.592 840.32a42.688 42.688 0 0 1-16.768-19.328H128.64V259.2h767.04v366.912a42.88 42.88 0 0 1 35.84 27.2 42.24 42.24 0 0 1 28.8-4.48V119.232a54.144 54.144 0 0 0-53.888-54.4H117.952a54.144 54.144 0 0 0-53.888 54.4v712.704c0 30.016 24.128 54.4 53.888 54.4h587.712a43.008 43.008 0 0 1 4.928-45.952z m126.016-684.224c0-11.136 8.896-20.096 19.84-20.096h19.904c11.008 0 19.904 8.96 19.904 20.096v22.72c0 11.072-8.96 20.032-19.84 20.032h-19.904a19.968 19.968 0 0 1-19.904-20.032v-22.72z m-92.48 0c0-11.136 8.896-20.096 19.84-20.096h19.904c11.008 0 19.904 8.96 19.904 20.096v22.72c0 11.072-8.96 20.032-19.84 20.032h-19.968a19.968 19.968 0 0 1-19.84-20.032v-22.72z m-92.48 0c0-11.136 8.896-20.096 19.84-20.096h19.904c11.008 0 19.904 8.96 19.904 20.096v22.72c0 11.072-8.96 20.032-19.84 20.032h-19.968a19.968 19.968 0 0 1-19.84-20.032v-22.72z" p-id="4896" fill="#7CB444"></path><path d="M1023.616 802.048l-5.952-34.176a8.384 8.384 0 0 0-9.728-6.848l-30.08 5.312a114.688 114.688 0 0 0-13.76-23.936l19.712-23.68a8.512 8.512 0 0 0-1.088-11.904l-26.368-22.272a8.32 8.32 0 0 0-11.776 1.024l-19.712 23.68a111.744 111.744 0 0 0-25.728-9.472v-30.912a8.448 8.448 0 0 0-8.384-8.448h-34.432a8.448 8.448 0 0 0-8.384 8.448v30.912a112 112 0 0 0-25.792 9.472l-19.648-23.68a8.32 8.32 0 0 0-11.84-1.024l-26.368 22.272a8.448 8.448 0 0 0-1.024 11.968l19.712 23.68c-5.504 7.296-10.112 15.36-13.76 23.872l-30.08-5.312a8.384 8.384 0 0 0-9.792 6.848l-5.952 34.176a8.448 8.448 0 0 0 6.784 9.792l30.208 5.376a115.2 115.2 0 0 0 4.736 27.264l-26.56 15.424a8.448 8.448 0 0 0-3.072 11.52l17.28 30.08a8.384 8.384 0 0 0 7.232 4.288 8.32 8.32 0 0 0 4.16-1.152l26.56-15.488c6.272 6.784 13.312 12.8 20.992 17.792l-10.496 29.056a8.576 8.576 0 0 0 4.992 10.88l32.384 11.84a8.448 8.448 0 0 0 6.4-0.32 8.448 8.448 0 0 0 4.352-4.736l10.496-29.056a115.072 115.072 0 0 0 27.392 0l10.432 29.056a8.384 8.384 0 0 0 10.752 5.056l32.384-11.904a8.448 8.448 0 0 0 4.992-10.88l-10.496-28.992c7.68-5.056 14.72-11.008 20.992-17.792l26.56 15.488a8.384 8.384 0 0 0 11.456-3.136l17.216-30.08a8.576 8.576 0 0 0-3.072-11.52l-26.496-15.424c2.56-8.704 4.224-17.792 4.736-27.264l30.08-5.376a8.448 8.448 0 0 0 6.848-9.792z m-150.08 54.4a46.4 46.4 0 0 1-46.208-46.656c0-25.664 20.672-46.528 46.208-46.528 25.472 0 46.144 20.864 46.144 46.528a46.4 46.4 0 0 1-46.144 46.592zM440.448 570.624c0-11.008-6.4-21.056-16.192-25.6l-90.24-42.304 90.24-42.24a28.416 28.416 0 0 0 16.192-25.664v-0.768a28.16 28.16 0 0 0-39.808-25.6L256.448 476.032a28.352 28.352 0 0 0-16.192 25.6v2.112c0 10.88 6.4 20.928 16.192 25.6L400.64 596.992a27.84 27.84 0 0 0 26.88-1.792 28.224 28.224 0 0 0 12.928-23.872v-0.704zM582.72 336.896a28.096 28.096 0 0 0-22.656-11.52H559.36a27.968 27.968 0 0 0-26.688 19.584l-94.976 296.896a28.608 28.608 0 0 0 4.032 25.28 28.032 28.032 0 0 0 22.656 11.52h0.704a27.968 27.968 0 0 0 26.688-19.584L586.752 362.24a28.544 28.544 0 0 0-4.032-25.344zM768 476.032L623.808 408.448a27.84 27.84 0 0 0-26.88 1.792 28.16 28.16 0 0 0-12.928 23.808v0.768c0 10.88 6.4 20.992 16.192 25.6l90.176 42.24-90.176 42.304a28.352 28.352 0 0 0-16.192 25.6v0.768a28.224 28.224 0 0 0 28.032 28.288 27.84 27.84 0 0 0 11.776-2.624L768 529.28a28.416 28.416 0 0 0 16.192-25.6v-2.048c0-10.944-6.4-20.992-16.192-25.6z" p-id="4897" fill="#7CB444"></path></svg>